<svg width="193" height="187" viewBox="0 0 193 187" fill="none" xmlns="http://www.w3.org/2000/svg">
<path d="M37.7108 181.596C42.6974 185.23 48.4869 186.983 54.2341 186.983C62.8833 186.983 71.4192 183.011 76.9127 175.545C76.9284 175.529 76.9433 175.512 76.9574 175.495C76.9707 175.477 76.9839 175.46 76.9963 175.442L77.0154 175.415C77.0286 175.397 77.0411 175.378 77.0535 175.361L96.4927 148.54L115.932 175.361C115.951 175.39 115.971 175.413 115.99 175.437C115.999 175.449 116.007 175.461 116.016 175.474C125.173 187.987 142.766 190.744 155.289 181.61C167.826 172.477 170.629 154.818 161.585 142.206L161.565 142.175C161.549 142.148 161.535 142.128 161.515 142.107L142.118 115.272L173.545 105.008C188.307 100.186 196.42 84.1957 191.617 69.3778C186.814 54.5608 170.896 46.4169 156.12 51.2242L124.694 61.4465L124.68 28.2631C124.665 12.6823 112.03 0 96.5068 0C80.9839 0 68.3486 12.6822 68.3345 28.2772L68.3063 61.4324L36.8799 51.21C36.8674 51.21 36.8523 51.2072 36.837 51.2029C36.8172 51.1976 36.7969 51.1896 36.7811 51.1817C22.0328 46.4312 6.17167 54.5749 1.38237 69.3645C-3.40702 84.1533 4.65045 100.087 19.3423 104.951C19.3559 104.955 19.3681 104.96 19.3798 104.965L19.4315 104.985L19.4552 104.993L50.8674 115.258L31.4705 142.093C31.4635 142.107 31.4531 142.122 31.4425 142.136C31.4319 142.15 31.4214 142.164 31.4144 142.178C22.3568 154.789 25.1741 172.463 37.7108 181.596Z" fill="#8e8e92"/>
</svg>
