<svg width="189" height="189" viewBox="0 0 189 189" fill="none" xmlns="http://www.w3.org/2000/svg">
<path fill-rule="evenodd" clip-rule="evenodd" d="M186.757 50.4926C189.101 48.1495 189.1 44.3505 186.757 42.0074L146.993 2.24264C144.649 -0.100508 140.851 -0.100505 138.507 2.24264L94.5 46.25L50.4926 2.24264C48.1495 -0.100508 44.3505 -0.100505 42.0074 2.24264L2.24264 42.0074C-0.100508 44.3505 -0.100505 48.1495 2.24264 50.4926L46.25 94.5L2.24264 138.507C-0.100508 140.851 -0.100505 144.649 2.24264 146.993L42.0074 186.757C44.3505 189.101 48.1495 189.1 50.4926 186.757L94.5 142.75L138.507 186.757C140.851 189.101 144.649 189.1 146.993 186.757L186.757 146.993C189.101 144.649 189.1 140.851 186.757 138.507L142.75 94.5L186.757 50.4926ZM142.75 94.5L94.5 142.75L46.25 94.5L94.5 46.25L142.75 94.5Z" fill="#C4B9AB"/>
</svg>
