<svg width="175" height="169" viewBox="0 0 175 169" fill="none" xmlns="http://www.w3.org/2000/svg">
<path fill-rule="evenodd" clip-rule="evenodd" d="M87.5108 0C105.062 0 119.289 14.2048 119.289 31.7274C119.289 49.2499 105.062 63.4546 87.5108 63.4546C69.9597 63.4546 55.7322 49.2499 55.7322 31.7274C55.7322 14.2048 69.9597 0 87.5108 0ZM34.421 162.938C20.222 152.639 17.0744 132.798 27.3905 118.621C37.7066 104.445 57.5799 101.303 71.7789 111.603C85.9779 121.902 89.1253 141.743 78.8096 155.919C68.4933 170.095 48.6199 173.238 34.421 162.938ZM147.734 118.621C158.05 132.798 154.903 152.639 140.704 162.938C126.505 173.238 106.631 170.095 96.3155 155.919C85.9991 141.743 89.1466 121.902 103.346 111.603C117.545 101.303 137.418 104.445 147.734 118.621ZM1.56394 62.1888C6.98744 45.5241 24.9154 36.404 41.6073 41.8187C58.2991 47.2335 67.434 65.1329 62.0105 81.7975C56.5869 98.4622 38.6588 107.582 21.967 102.168C5.27518 96.7528 -3.85957 78.8541 1.56394 62.1888ZM133.393 41.8187C150.085 36.404 168.013 45.5241 173.436 62.1888C178.86 78.8541 169.725 96.7528 153.033 102.168C136.341 107.582 118.413 98.4622 112.99 81.7975C107.566 65.1329 116.701 47.2335 133.393 41.8187Z" fill="#d0ff00"/>
</svg>
