<svg width="34" height="21" viewBox="0 0 34 21" fill="none" xmlns="http://www.w3.org/2000/svg">
<path fill-rule="evenodd" clip-rule="evenodd" d="M34 10.5C34 10.5 26.3889 21 17 21C7.61119 21 0 10.5 0 10.5C0 10.5 7.61119 0 17 0C26.3889 0 34 10.5 34 10.5ZM24.7589 10.5C24.7589 14.7191 21.2852 18.1395 17 18.1395C12.7148 18.1395 9.24105 14.7191 9.24105 10.5C9.24105 6.28087 12.7148 2.86053 17 2.86053C21.2852 2.86053 24.7589 6.28087 24.7589 10.5ZM17 14.8776C19.4556 14.8776 21.4461 12.9177 21.4461 10.5C21.4461 8.08232 19.4556 6.12237 17 6.12237C14.5444 6.12237 12.5539 8.08232 12.5539 10.5C12.5539 12.9177 14.5444 14.8776 17 14.8776Z" fill="#3F4249"/>
</svg>
