<svg width="26" height="28" viewBox="0 0 26 28" fill="none" xmlns="http://www.w3.org/2000/svg">
<path fill-rule="evenodd" clip-rule="evenodd" d="M16.5997 7.88639C24.1215 -0.596449 31.462 11.9511 20.2246 13.9834C31.462 16.1042 24.0309 28.5633 16.5997 20.0804C20.4058 30.684 5.63408 30.5957 9.44033 20.0804C1.91848 28.5633 -5.42209 16.1042 5.81533 13.9834C-5.51272 11.9511 1.91848 -0.508088 9.44033 7.88639C5.54346 -2.6288 20.4058 -2.6288 16.5997 7.88639ZM12.9746 12.3929C13.8809 12.3929 14.6965 13.0998 14.6965 13.9834C14.6965 14.8671 13.8809 15.6624 12.9746 15.6624C12.0684 15.6624 11.3434 14.8671 11.3434 13.9834C11.3434 13.0998 12.0684 12.3929 12.9746 12.3929Z" fill="#3F4249"/>
</svg>
