<svg width="387" height="349" viewBox="0 0 387 349" fill="none" xmlns="http://www.w3.org/2000/svg">
<ellipse cx="130" cy="219.5" rx="130" ry="129.5" fill="#3F4249"/>
<path d="M72.72 223.3C71.7333 223.3 70.86 223.073 70.1 222.62C69.3467 222.16 68.7533 221.537 68.32 220.75C67.8933 219.957 67.68 219.057 67.68 218.05C67.68 217.297 67.8033 216.6 68.05 215.96C68.2967 215.32 68.6433 214.763 69.09 214.29C69.5367 213.817 70.07 213.45 70.69 213.19C71.31 212.93 71.9867 212.8 72.72 212.8C73.6933 212.8 74.5067 213.007 75.16 213.42C75.82 213.833 76.3233 214.367 76.67 215.02L76.36 215.49V213.1H78.32V223H76.36V220.61L76.67 221.08C76.3233 221.733 75.82 222.267 75.16 222.68C74.5067 223.093 73.6933 223.3 72.72 223.3ZM73.01 221.35C73.61 221.35 74.1467 221.217 74.62 220.95C75.0933 220.677 75.4633 220.293 75.73 219.8C76.0033 219.307 76.14 218.723 76.14 218.05C76.14 217.377 76.0033 216.793 75.73 216.3C75.4633 215.8 75.0933 215.417 74.62 215.15C74.1467 214.883 73.61 214.75 73.01 214.75C72.4033 214.75 71.8633 214.883 71.39 215.15C70.9233 215.417 70.5533 215.8 70.28 216.3C70.0067 216.793 69.87 217.377 69.87 218.05C69.87 218.723 70.0067 219.307 70.28 219.8C70.5533 220.293 70.9233 220.677 71.39 220.95C71.8633 221.217 72.4033 221.35 73.01 221.35ZM81.3816 223V213.1H83.5816V214.36C83.9949 213.807 84.4749 213.41 85.0216 213.17C85.5682 212.923 86.1349 212.8 86.7216 212.8C87.6282 212.8 88.3782 212.98 88.9716 213.34C89.5649 213.7 90.0049 214.163 90.2916 214.73C90.5849 215.297 90.7316 215.88 90.7316 216.48V223H88.5316V217.16C88.5316 216.453 88.3182 215.887 87.8916 215.46C87.4716 215.033 86.8849 214.82 86.1316 214.82C85.6382 214.82 85.1982 214.93 84.8116 215.15C84.4316 215.37 84.1316 215.677 83.9116 216.07C83.6916 216.457 83.5816 216.91 83.5816 217.43V223H81.3816ZM97.8763 223.3C96.8896 223.3 96.0163 223.073 95.2563 222.62C94.5029 222.16 93.9096 221.537 93.4762 220.75C93.0496 219.957 92.8363 219.057 92.8363 218.05C92.8363 217.297 92.9596 216.6 93.2063 215.96C93.4529 215.32 93.7996 214.763 94.2463 214.29C94.6929 213.817 95.2263 213.45 95.8463 213.19C96.4663 212.93 97.1429 212.8 97.8763 212.8C98.8496 212.8 99.6629 213.007 100.316 213.42C100.976 213.833 101.48 214.367 101.826 215.02L101.516 215.49V213.1H103.476V223H101.516V220.61L101.826 221.08C101.48 221.733 100.976 222.267 100.316 222.68C99.6629 223.093 98.8496 223.3 97.8763 223.3ZM98.1663 221.35C98.7663 221.35 99.3029 221.217 99.7763 220.95C100.25 220.677 100.62 220.293 100.886 219.8C101.16 219.307 101.296 218.723 101.296 218.05C101.296 217.377 101.16 216.793 100.886 216.3C100.62 215.8 100.25 215.417 99.7763 215.15C99.3029 214.883 98.7663 214.75 98.1663 214.75C97.5596 214.75 97.0196 214.883 96.5463 215.15C96.0796 215.417 95.7096 215.8 95.4363 216.3C95.1629 216.793 95.0263 217.377 95.0263 218.05C95.0263 218.723 95.1629 219.307 95.4363 219.8C95.7096 220.293 96.0796 220.677 96.5463 220.95C97.0196 221.217 97.5596 221.35 98.1663 221.35ZM106.538 223V208.6H108.738V223H106.538ZM112.642 227.48C112.282 227.48 111.928 227.44 111.582 227.36C111.235 227.28 110.895 227.143 110.562 226.95L111.062 225.07C111.268 225.203 111.495 225.303 111.742 225.37C111.988 225.437 112.208 225.47 112.402 225.47C112.868 225.47 113.235 225.36 113.502 225.14C113.768 224.92 113.978 224.58 114.132 224.12L114.462 223.16L110.562 213.1H112.972L115.712 220.78L118.382 213.1H120.712L116.432 224.43C116.125 225.223 115.782 225.84 115.402 226.28C115.022 226.727 114.602 227.037 114.142 227.21C113.682 227.39 113.182 227.48 112.642 227.48ZM126.987 223.3C126.02 223.3 125.247 223.02 124.667 222.46C124.087 221.9 123.797 221.043 123.797 219.89V210.21H125.997V213.1H128.747V214.92H125.997V219.41C125.997 220.103 126.127 220.593 126.387 220.88C126.654 221.16 127.027 221.3 127.507 221.3C127.74 221.3 127.96 221.273 128.167 221.22C128.374 221.167 128.56 221.097 128.727 221.01L129.117 222.79C128.83 222.937 128.5 223.057 128.127 223.15C127.76 223.25 127.38 223.3 126.987 223.3ZM121.627 214.92V213.1H124.087V214.92H121.627ZM131.421 223V213.1H133.621V223H131.421ZM132.521 211.33C132.127 211.33 131.787 211.203 131.501 210.95C131.214 210.697 131.071 210.363 131.071 209.95C131.071 209.543 131.214 209.213 131.501 208.96C131.787 208.7 132.127 208.57 132.521 208.57C132.914 208.57 133.254 208.7 133.541 208.96C133.827 209.213 133.971 209.543 133.971 209.95C133.971 210.363 133.827 210.697 133.541 210.95C133.254 211.203 132.914 211.33 132.521 211.33ZM141.215 223.3C140.175 223.3 139.248 223.073 138.435 222.62C137.621 222.16 136.981 221.537 136.515 220.75C136.055 219.957 135.825 219.057 135.825 218.05C135.825 217.29 135.961 216.593 136.235 215.96C136.508 215.32 136.895 214.763 137.395 214.29C137.895 213.817 138.481 213.45 139.155 213.19C139.835 212.93 140.571 212.8 141.365 212.8C142.031 212.8 142.648 212.89 143.215 213.07C143.788 213.243 144.315 213.513 144.795 213.88L143.735 215.56C143.428 215.287 143.075 215.083 142.675 214.95C142.281 214.817 141.861 214.75 141.415 214.75C140.721 214.75 140.125 214.88 139.625 215.14C139.125 215.4 138.735 215.777 138.455 216.27C138.181 216.757 138.045 217.347 138.045 218.04C138.045 219.073 138.345 219.883 138.945 220.47C139.551 221.057 140.375 221.35 141.415 221.35C141.908 221.35 142.375 221.26 142.815 221.08C143.255 220.893 143.621 220.65 143.915 220.35L144.965 222.02C144.438 222.42 143.851 222.733 143.205 222.96C142.558 223.187 141.895 223.3 141.215 223.3ZM150.327 223.29C149.507 223.29 148.74 223.173 148.027 222.94C147.314 222.707 146.714 222.393 146.227 222L147.057 220.39C147.517 220.75 148.034 221.033 148.607 221.24C149.187 221.447 149.757 221.55 150.317 221.55C150.964 221.55 151.467 221.437 151.827 221.21C152.187 220.983 152.367 220.667 152.367 220.26C152.367 219.873 152.21 219.59 151.897 219.41C151.59 219.223 151.004 219.03 150.137 218.83C148.89 218.57 147.984 218.203 147.417 217.73C146.857 217.25 146.577 216.587 146.577 215.74C146.577 215.147 146.74 214.623 147.067 214.17C147.4 213.71 147.857 213.35 148.437 213.09C149.017 212.83 149.687 212.7 150.447 212.7C151.187 212.7 151.884 212.807 152.537 213.02C153.19 213.227 153.757 213.52 154.237 213.9L153.457 215.52C153.21 215.3 152.924 215.11 152.597 214.95C152.27 214.79 151.924 214.667 151.557 214.58C151.197 214.487 150.837 214.44 150.477 214.44C149.917 214.44 149.46 214.55 149.107 214.77C148.76 214.983 148.587 215.28 148.587 215.66C148.587 216.053 148.754 216.343 149.087 216.53C149.42 216.717 149.994 216.903 150.807 217.09C152.087 217.37 153.004 217.743 153.557 218.21C154.11 218.677 154.387 219.323 154.387 220.15C154.387 220.783 154.217 221.337 153.877 221.81C153.537 222.277 153.06 222.64 152.447 222.9C151.84 223.16 151.134 223.29 150.327 223.29ZM167.632 223.3C166.386 223.3 165.342 223.047 164.502 222.54C163.669 222.033 163.039 221.347 162.612 220.48C162.192 219.607 161.982 218.627 161.982 217.54V209H164.222V217.52C164.222 218.753 164.529 219.673 165.142 220.28C165.756 220.88 166.586 221.18 167.632 221.18C168.679 221.18 169.509 220.88 170.122 220.28C170.736 219.673 171.042 218.753 171.042 217.52V209H173.292V217.54C173.292 218.62 173.079 219.597 172.652 220.47C172.232 221.337 171.602 222.027 170.762 222.54C169.929 223.047 168.886 223.3 167.632 223.3ZM175.557 223L180.097 215.82L175.797 209H178.477L181.707 214.17L185.157 209H187.757L183.237 215.88L187.887 223H185.197L181.617 217.49L178.167 223H175.557ZM68.53 248V238.1H70.73V239.46C70.9967 239.073 71.3033 238.76 71.65 238.52C71.9967 238.273 72.3633 238.093 72.75 237.98C73.1367 237.86 73.53 237.8 73.93 237.8C74.7367 237.8 75.4067 237.977 75.94 238.33C76.48 238.683 76.86 239.137 77.08 239.69C77.5733 238.97 78.1467 238.477 78.8 238.21C79.4533 237.937 80.11 237.8 80.77 237.8C81.6833 237.8 82.4133 237.98 82.96 238.34C83.5067 238.7 83.9 239.163 84.14 239.73C84.3867 240.297 84.51 240.88 84.51 241.48V248H82.31V242.12C82.31 241.433 82.12 240.88 81.74 240.46C81.3667 240.033 80.82 239.82 80.1 239.82C79.6267 239.82 79.2033 239.923 78.83 240.13C78.4567 240.337 78.16 240.623 77.94 240.99C77.7267 241.35 77.62 241.767 77.62 242.24V248H75.42V242.12C75.42 241.433 75.2333 240.88 74.86 240.46C74.4867 240.033 73.9367 239.82 73.21 239.82C72.7433 239.82 72.32 239.923 71.94 240.13C71.5667 240.337 71.27 240.623 71.05 240.99C70.8367 241.35 70.73 241.767 70.73 242.24V248H68.53ZM91.9953 248.3C90.9286 248.3 89.992 248.083 89.1853 247.65C88.3786 247.21 87.7486 246.597 87.2953 245.81C86.8486 245.023 86.6253 244.11 86.6253 243.07C86.6253 242.31 86.7553 241.61 87.0153 240.97C87.2753 240.323 87.642 239.763 88.1153 239.29C88.5886 238.817 89.142 238.45 89.7753 238.19C90.4153 237.93 91.112 237.8 91.8653 237.8C92.6853 237.8 93.4153 237.947 94.0553 238.24C94.6953 238.527 95.2253 238.93 95.6453 239.45C96.072 239.97 96.372 240.58 96.5453 241.28C96.7253 241.973 96.7553 242.727 96.6353 243.54H88.7353C88.722 244.133 88.852 244.653 89.1253 245.1C89.3986 245.54 89.7886 245.883 90.2953 246.13C90.8086 246.377 91.412 246.5 92.1053 246.5C92.6653 246.5 93.2053 246.417 93.7253 246.25C94.252 246.077 94.7286 245.823 95.1553 245.49L96.0053 247.07C95.6853 247.33 95.2986 247.553 94.8453 247.74C94.392 247.92 93.9186 248.057 93.4253 248.15C92.932 248.25 92.4553 248.3 91.9953 248.3ZM88.8653 241.92H94.4753C94.4553 241.173 94.2153 240.587 93.7553 240.16C93.302 239.733 92.6553 239.52 91.8153 239.52C91.002 239.52 90.3253 239.733 89.7853 240.16C89.252 240.587 88.9453 241.173 88.8653 241.92ZM102.983 248.3C102.016 248.3 101.243 248.02 100.663 247.46C100.083 246.9 99.793 246.043 99.793 244.89V235.21H101.993V238.1H104.743V239.92H101.993V244.41C101.993 245.103 102.123 245.593 102.383 245.88C102.65 246.16 103.023 246.3 103.503 246.3C103.736 246.3 103.956 246.273 104.163 246.22C104.37 246.167 104.556 246.097 104.723 246.01L105.113 247.79C104.826 247.937 104.496 248.057 104.123 248.15C103.756 248.25 103.376 248.3 102.983 248.3ZM97.623 239.92V238.1H100.083V239.92H97.623ZM107.417 248V238.1H109.617V239.47C109.99 238.85 110.443 238.417 110.977 238.17C111.51 237.917 112.083 237.79 112.697 237.79C112.897 237.79 113.087 237.8 113.267 237.82C113.447 237.84 113.62 237.87 113.787 237.91L113.497 240.18C113.297 240.12 113.093 240.073 112.887 240.04C112.68 240.007 112.473 239.99 112.267 239.99C111.5 239.99 110.867 240.227 110.367 240.7C109.867 241.167 109.617 241.803 109.617 242.61V248H107.417ZM115.62 248V238.1H117.82V248H115.62ZM116.72 236.33C116.327 236.33 115.987 236.203 115.7 235.95C115.413 235.697 115.27 235.363 115.27 234.95C115.27 234.543 115.413 234.213 115.7 233.96C115.987 233.7 116.327 233.57 116.72 233.57C117.113 233.57 117.453 233.7 117.74 233.96C118.027 234.213 118.17 234.543 118.17 234.95C118.17 235.363 118.027 235.697 117.74 235.95C117.453 236.203 117.113 236.33 116.72 236.33ZM125.414 248.3C124.374 248.3 123.447 248.073 122.634 247.62C121.82 247.16 121.18 246.537 120.714 245.75C120.254 244.957 120.024 244.057 120.024 243.05C120.024 242.29 120.16 241.593 120.434 240.96C120.707 240.32 121.094 239.763 121.594 239.29C122.094 238.817 122.68 238.45 123.354 238.19C124.034 237.93 124.77 237.8 125.564 237.8C126.23 237.8 126.847 237.89 127.414 238.07C127.987 238.243 128.514 238.513 128.994 238.88L127.934 240.56C127.627 240.287 127.274 240.083 126.874 239.95C126.48 239.817 126.06 239.75 125.614 239.75C124.92 239.75 124.324 239.88 123.824 240.14C123.324 240.4 122.934 240.777 122.654 241.27C122.38 241.757 122.244 242.347 122.244 243.04C122.244 244.073 122.544 244.883 123.144 245.47C123.75 246.057 124.574 246.35 125.614 246.35C126.107 246.35 126.574 246.26 127.014 246.08C127.454 245.893 127.82 245.65 128.114 245.35L129.164 247.02C128.637 247.42 128.05 247.733 127.404 247.96C126.757 248.187 126.094 248.3 125.414 248.3ZM134.526 248.29C133.706 248.29 132.94 248.173 132.226 247.94C131.513 247.707 130.913 247.393 130.426 247L131.256 245.39C131.716 245.75 132.233 246.033 132.806 246.24C133.386 246.447 133.956 246.55 134.516 246.55C135.163 246.55 135.666 246.437 136.026 246.21C136.386 245.983 136.566 245.667 136.566 245.26C136.566 244.873 136.41 244.59 136.096 244.41C135.79 244.223 135.203 244.03 134.336 243.83C133.09 243.57 132.183 243.203 131.616 242.73C131.056 242.25 130.776 241.587 130.776 240.74C130.776 240.147 130.94 239.623 131.266 239.17C131.6 238.71 132.056 238.35 132.636 238.09C133.216 237.83 133.886 237.7 134.646 237.7C135.386 237.7 136.083 237.807 136.736 238.02C137.39 238.227 137.956 238.52 138.436 238.9L137.656 240.52C137.41 240.3 137.123 240.11 136.796 239.95C136.47 239.79 136.123 239.667 135.756 239.58C135.396 239.487 135.036 239.44 134.676 239.44C134.116 239.44 133.66 239.55 133.306 239.77C132.96 239.983 132.786 240.28 132.786 240.66C132.786 241.053 132.953 241.343 133.286 241.53C133.62 241.717 134.193 241.903 135.006 242.09C136.286 242.37 137.203 242.743 137.756 243.21C138.31 243.677 138.586 244.323 138.586 245.15C138.586 245.783 138.416 246.337 138.076 246.81C137.736 247.277 137.26 247.64 136.646 247.9C136.04 248.16 135.333 248.29 134.526 248.29Z" fill="#C4B9AB"/>
<circle cx="277" cy="109" r="109" fill="#006DFF"/>
<path d="M206.53 124V114.1H208.73V115.46C208.997 115.073 209.303 114.76 209.65 114.52C209.997 114.273 210.363 114.093 210.75 113.98C211.137 113.86 211.53 113.8 211.93 113.8C212.737 113.8 213.407 113.977 213.94 114.33C214.48 114.683 214.86 115.137 215.08 115.69C215.573 114.97 216.147 114.477 216.8 114.21C217.453 113.937 218.11 113.8 218.77 113.8C219.683 113.8 220.413 113.98 220.96 114.34C221.507 114.7 221.9 115.163 222.14 115.73C222.387 116.297 222.51 116.88 222.51 117.48V124H220.31V118.12C220.31 117.433 220.12 116.88 219.74 116.46C219.367 116.033 218.82 115.82 218.1 115.82C217.627 115.82 217.203 115.923 216.83 116.13C216.457 116.337 216.16 116.623 215.94 116.99C215.727 117.35 215.62 117.767 215.62 118.24V124H213.42V118.12C213.42 117.433 213.233 116.88 212.86 116.46C212.487 116.033 211.937 115.82 211.21 115.82C210.743 115.82 210.32 115.923 209.94 116.13C209.567 116.337 209.27 116.623 209.05 116.99C208.837 117.35 208.73 117.767 208.73 118.24V124H206.53ZM229.985 124.3C228.952 124.3 228.029 124.063 227.215 123.59C226.409 123.11 225.775 122.473 225.315 121.68C224.855 120.88 224.625 120.003 224.625 119.05C224.625 118.343 224.755 117.677 225.015 117.05C225.282 116.417 225.655 115.857 226.135 115.37C226.622 114.883 227.192 114.5 227.845 114.22C228.499 113.94 229.215 113.8 229.995 113.8C231.029 113.8 231.949 114.04 232.755 114.52C233.569 114.993 234.205 115.63 234.665 116.43C235.125 117.223 235.355 118.097 235.355 119.05C235.355 119.75 235.222 120.417 234.955 121.05C234.695 121.683 234.325 122.243 233.845 122.73C233.365 123.217 232.799 123.6 232.145 123.88C231.492 124.16 230.772 124.3 229.985 124.3ZM229.985 122.35C230.599 122.35 231.142 122.217 231.615 121.95C232.095 121.677 232.472 121.293 232.745 120.8C233.019 120.307 233.155 119.723 233.155 119.05C233.155 118.377 233.019 117.793 232.745 117.3C232.472 116.8 232.095 116.417 231.615 116.15C231.142 115.883 230.599 115.75 229.985 115.75C229.372 115.75 228.825 115.883 228.345 116.15C227.872 116.417 227.499 116.8 227.225 117.3C226.959 117.793 226.825 118.377 226.825 119.05C226.825 119.723 226.962 120.307 227.235 120.8C227.509 121.293 227.882 121.677 228.355 121.95C228.835 122.217 229.379 122.35 229.985 122.35ZM243.325 124.3C242.665 124.3 242.068 124.203 241.535 124.01C241.008 123.817 240.552 123.55 240.165 123.21C239.778 122.863 239.465 122.467 239.225 122.02L239.545 121.53V124H237.565V109.6H239.755V116.38L239.305 115.89C239.745 115.25 240.295 114.743 240.955 114.37C241.615 113.99 242.395 113.8 243.295 113.8C244.282 113.8 245.148 114.037 245.895 114.51C246.648 114.977 247.235 115.607 247.655 116.4C248.075 117.193 248.285 118.077 248.285 119.05C248.285 119.803 248.162 120.5 247.915 121.14C247.675 121.78 247.335 122.337 246.895 122.81C246.455 123.277 245.932 123.643 245.325 123.91C244.718 124.17 244.052 124.3 243.325 124.3ZM242.925 122.35C243.532 122.35 244.072 122.217 244.545 121.95C245.025 121.677 245.402 121.293 245.675 120.8C245.948 120.307 246.085 119.723 246.085 119.05C246.085 118.377 245.948 117.793 245.675 117.3C245.408 116.8 245.035 116.417 244.555 116.15C244.082 115.883 243.538 115.75 242.925 115.75C242.312 115.75 241.765 115.883 241.285 116.15C240.812 116.417 240.438 116.8 240.165 117.3C239.892 117.793 239.755 118.377 239.755 119.05C239.755 119.723 239.892 120.307 240.165 120.8C240.438 121.293 240.812 121.677 241.285 121.95C241.765 122.217 242.312 122.35 242.925 122.35ZM250.495 124V114.1H252.695V124H250.495ZM251.595 112.33C251.202 112.33 250.862 112.203 250.575 111.95C250.288 111.697 250.145 111.363 250.145 110.95C250.145 110.543 250.288 110.213 250.575 109.96C250.862 109.7 251.202 109.57 251.595 109.57C251.988 109.57 252.328 109.7 252.615 109.96C252.902 110.213 253.045 110.543 253.045 110.95C253.045 111.363 252.902 111.697 252.615 111.95C252.328 112.203 251.988 112.33 251.595 112.33ZM255.749 124V109.6H257.949V124H255.749ZM265.523 124.3C264.456 124.3 263.519 124.083 262.713 123.65C261.906 123.21 261.276 122.597 260.823 121.81C260.376 121.023 260.153 120.11 260.153 119.07C260.153 118.31 260.283 117.61 260.543 116.97C260.803 116.323 261.169 115.763 261.643 115.29C262.116 114.817 262.669 114.45 263.303 114.19C263.943 113.93 264.639 113.8 265.393 113.8C266.213 113.8 266.943 113.947 267.583 114.24C268.223 114.527 268.753 114.93 269.173 115.45C269.599 115.97 269.899 116.58 270.073 117.28C270.253 117.973 270.283 118.727 270.163 119.54H262.263C262.249 120.133 262.379 120.653 262.653 121.1C262.926 121.54 263.316 121.883 263.823 122.13C264.336 122.377 264.939 122.5 265.633 122.5C266.193 122.5 266.733 122.417 267.253 122.25C267.779 122.077 268.256 121.823 268.683 121.49L269.533 123.07C269.213 123.33 268.826 123.553 268.373 123.74C267.919 123.92 267.446 124.057 266.953 124.15C266.459 124.25 265.983 124.3 265.523 124.3ZM262.393 117.92H268.003C267.983 117.173 267.743 116.587 267.283 116.16C266.829 115.733 266.183 115.52 265.343 115.52C264.529 115.52 263.853 115.733 263.313 116.16C262.779 116.587 262.473 117.173 262.393 117.92ZM283.21 124.3C281.964 124.3 280.92 124.047 280.08 123.54C279.247 123.033 278.617 122.347 278.19 121.48C277.77 120.607 277.56 119.627 277.56 118.54V110H279.8V118.52C279.8 119.753 280.107 120.673 280.72 121.28C281.334 121.88 282.164 122.18 283.21 122.18C284.257 122.18 285.087 121.88 285.7 121.28C286.314 120.673 286.62 119.753 286.62 118.52V110H288.87V118.54C288.87 119.62 288.657 120.597 288.23 121.47C287.81 122.337 287.18 123.027 286.34 123.54C285.507 124.047 284.464 124.3 283.21 124.3ZM291.135 124L295.675 116.82L291.375 110H294.055L297.285 115.17L300.735 110H303.335L298.815 116.88L303.465 124H300.775L297.195 118.49L293.745 124H291.135ZM310.756 126.3L308.916 125.58L316.196 107.9L318.026 108.62L310.756 126.3ZM330.32 124.3C329.073 124.3 328.03 124.047 327.19 123.54C326.356 123.033 325.726 122.347 325.3 121.48C324.88 120.607 324.67 119.627 324.67 118.54V110H326.91V118.52C326.91 119.753 327.216 120.673 327.83 121.28C328.443 121.88 329.273 122.18 330.32 122.18C331.366 122.18 332.196 121.88 332.81 121.28C333.423 120.673 333.73 119.753 333.73 118.52V110H335.98V118.54C335.98 119.62 335.766 120.597 335.34 121.47C334.92 122.337 334.29 123.027 333.45 123.54C332.616 124.047 331.573 124.3 330.32 124.3ZM339.535 124V110H341.775V124H339.535Z" fill="#3F4249"/>
</svg>
