<svg width="28" height="23" viewBox="0 0 28 23" fill="none" xmlns="http://www.w3.org/2000/svg">
<path d="M17.2313 20.8228C20.2819 18.6557 24.6842 15.263 26.5188 12.5497C27.8914 10.5226 28.3381 8.01115 27.741 5.67606C26.4654 0.356958 19.4014 -1.81655 15.0013 1.74799C14.7538 1.94714 14.5257 2.16792 14.2915 2.39462C14.196 2.48713 14.0994 2.58063 14 2.67405C13.9006 2.58063 13.804 2.48712 13.7085 2.3946C13.4743 2.16792 13.2462 1.94714 12.9987 1.74799C8.59861 -1.81655 1.53466 0.356958 0.258997 5.67606C-0.338062 8.01115 0.108524 10.5226 1.48127 12.5497C3.31579 15.263 7.71812 18.6557 10.7687 20.8228C11.6188 21.4268 14 23 14 23C14 23 16.3812 21.4268 17.2313 20.8228Z" fill="#3F4249"/>
</svg>
