<svg width="265" height="80" viewBox="0 0 265 80" fill="none" xmlns="http://www.w3.org/2000/svg">
<path d="M218.727 55.314C216.469 54.6283 214.889 53.9426 213.535 52.7998L215.792 47.5426C217.146 48.4569 218.501 49.1426 220.307 49.8283C220.489 49.8745 220.669 49.9207 220.847 49.9664C222.434 50.3732 223.875 50.7426 225.498 50.7426C227.53 50.7426 228.884 50.514 229.787 49.8283C230.69 49.1426 231.141 48.4569 231.141 47.5426C231.141 46.8569 230.916 46.1712 230.239 45.714C229.787 45.2569 229.11 44.7998 228.207 44.5712C227.895 44.4923 227.557 44.3861 227.191 44.2716C226.498 44.0542 225.708 43.8066 224.821 43.6569C222.921 43.2721 221.341 42.7254 220.081 42.2894C219.844 42.2074 219.618 42.1293 219.404 42.0569C218.049 41.5998 216.695 40.6855 215.792 39.5426C214.664 38.3998 214.212 36.7998 214.212 34.7426C214.212 32.914 214.664 31.5426 215.566 30.1712C216.469 28.7998 217.824 27.6569 219.629 26.7426C221.435 25.8283 223.693 25.5998 226.401 25.5998C228.207 25.5998 230.013 25.8283 231.819 26.2855C233.624 26.7426 235.204 27.4283 236.559 28.3426L234.527 33.5998C231.819 31.9998 229.11 31.314 226.401 31.314C224.595 31.314 223.015 31.5426 222.112 32.2283C221.21 32.914 220.758 33.5998 220.758 34.7426C220.758 35.8855 221.21 36.5712 222.338 37.0283C223.467 37.4855 225.047 37.9426 227.078 38.3998C228.978 38.7845 230.558 39.3312 231.819 39.7673C232.056 39.8493 232.281 39.9274 232.496 39.9998C233.85 40.4569 235.204 41.3712 236.107 42.514C237.236 43.6569 237.687 45.2569 237.687 47.314C237.687 48.914 237.236 50.514 236.333 51.8855C235.43 53.2569 234.076 54.3998 232.044 55.314C230.239 56.2283 227.981 56.4569 225.273 56.4569C223.015 56.2283 220.758 55.9998 218.727 55.314Z" fill="#C4B9AB"/>
<path fill-rule="evenodd" clip-rule="evenodd" d="M178.548 47.5431C178.548 45.7146 178.096 44.1146 177.193 42.9717C176.29 41.8289 174.936 40.9146 172.905 40.2289C174.259 39.5431 175.162 38.6289 175.839 37.486C176.516 36.3431 176.968 34.9717 176.968 33.6003C176.968 31.086 175.839 29.2574 174.033 27.886C172.227 26.5146 169.519 25.8289 165.907 25.8289H151.687V55.5431H166.81C170.647 55.5431 173.582 54.8574 175.613 53.486C177.645 52.1146 178.548 50.0574 178.548 47.5431ZM158.458 38.4003V31.5431H165.23C167.036 31.5431 168.164 31.7717 169.067 32.4574C169.97 32.9146 170.422 33.8289 170.422 34.9717C170.422 36.1146 169.97 36.8003 169.067 37.486C168.164 38.1717 166.81 38.4003 165.23 38.4003H158.458ZM171.776 46.8574C171.776 48.0003 171.325 48.9146 170.422 49.6003C169.519 50.286 168.164 50.5146 166.359 50.5146H158.458V43.2003H166.359C169.97 43.2003 171.776 44.3431 171.776 46.8574Z" fill="#C4B9AB"/>
<path fill-rule="evenodd" clip-rule="evenodd" d="M186.899 55.7709L189.382 49.3709H202.926L205.86 55.7709H212.858L199.766 26.0566H192.994L179.902 55.7709H186.899ZM196.154 32.6852L200.894 44.1138H191.414L196.154 32.6852Z" fill="#C4B9AB"/>
<path d="M265 55.7709V50.2852H249.199V43.428H262.743V37.9423H249.199V31.5423H264.549V26.0566H242.428V55.7709H265Z" fill="#C4B9AB"/>
<path fill-rule="evenodd" clip-rule="evenodd" d="M138.595 40C138.595 62.0914 120.909 80 99.0929 80C77.2767 80 59.5911 62.0914 59.5911 40C59.5911 17.9086 77.2767 0 99.0929 0C120.909 0 138.595 17.9086 138.595 40ZM78.7777 26.0566H85.5494V55.7709H78.7777V26.0566ZM119.182 26.0566V55.7709H113.539L98.8671 37.7138V55.7709H92.0954V26.0566H97.7385L112.185 44.1138V26.0566H119.182Z" fill="#C4B9AB"/>
<path d="M49.2079 68.572V11.6577C33.6329 11.6577 20.9923 24.4577 21.2181 40.2291C21.2181 55.772 33.6329 68.572 49.2079 68.572Z" fill="#C4B9AB"/>
<path d="M10.8348 55.7719C4.51448 53.4862 0 47.3148 0 40.0005C0 32.9148 4.51448 26.7434 10.8348 24.2291V55.7719Z" fill="#C4B9AB"/>
</svg>
