<svg width="80" height="80" viewBox="0 0 80 80" fill="none" xmlns="http://www.w3.org/2000/svg">
<path fill-rule="evenodd" clip-rule="evenodd" d="M80 40C80 62.0915 62.0915 80 40 80C17.9086 80 0 62.0915 0 40C0 17.9086 17.9086 0 40 0C62.0915 0 80 17.9086 80 40ZM29.3334 33.1853C33.0969 33.1853 36.1481 30.1341 36.1481 26.3703C36.1481 22.6068 33.0969 19.5556 29.3334 19.5556C25.5696 19.5556 22.5184 22.6068 22.5184 26.3703C22.5184 30.1341 25.5696 33.1853 29.3334 33.1853ZM50.6666 33.1853C54.4304 33.1853 57.4816 30.1341 57.4816 26.3703C57.4816 22.6068 54.4304 19.5556 50.6666 19.5556C46.9031 19.5556 43.8519 22.6068 43.8519 26.3703C43.8519 30.1341 46.9031 33.1853 50.6666 33.1853ZM40.2962 53.9259C31.1326 53.9259 23.7038 46.4971 23.7038 37.3335H16.5926C16.5926 50.4245 27.2052 61.0372 40.2962 61.0372C53.3876 61.0372 64 50.4245 64 37.3335H56.8887C56.8887 46.4971 49.4603 53.9259 40.2962 53.9259Z" fill="#8e8e92"/>
</svg>
