<svg width="80" height="80" viewBox="0 0 80 80" fill="none" xmlns="http://www.w3.org/2000/svg">
<path fill-rule="evenodd" clip-rule="evenodd" d="M80 40C80 62.0926 62.0926 80 40 80C17.9074 80 0 62.0926 0 40C0 17.9074 17.9074 0 40 0C62.0926 0 80 17.9074 80 40ZM29.3345 33.1843C33.0969 33.1843 36.1502 30.1345 36.1502 26.3686C36.1502 22.6026 33.1004 19.5528 29.3345 19.5528C25.5686 19.5528 22.5188 22.6026 22.5188 26.3686C22.5188 30.1345 25.5686 33.1843 29.3345 33.1843ZM50.669 33.1843C54.4314 33.1843 57.4847 30.1345 57.4847 26.3686C57.4847 22.6026 54.4349 19.5528 50.669 19.5528C46.9031 19.5528 43.8533 22.6026 43.8533 26.3686C43.8533 30.1345 46.9031 33.1843 50.669 33.1843ZM40.3004 44.4437C49.4638 44.4437 56.8943 51.8707 56.8943 61.0376H64.007C64.007 47.9476 53.3939 37.3345 40.3039 37.3345C27.214 37.3345 16.6009 47.9476 16.6009 61.0376H23.7135C23.7135 51.8742 31.1406 44.4437 40.3074 44.4437H40.3004Z" fill="#8e8e92"/>
</svg>
