<svg width="194" height="194" viewBox="0 0 194 194" fill="none" xmlns="http://www.w3.org/2000/svg">
<path d="M97 0C71.2576 0 50.3896 20.8682 50.3896 46.6104C50.3896 48.6976 48.6976 50.3896 46.6104 50.3896C20.8682 50.3896 0 71.2576 0 97C0 122.742 20.8682 143.611 46.6104 143.611C48.6976 143.611 50.3896 145.302 50.3896 147.389C50.3896 173.132 71.2576 194 97 194C122.742 194 143.611 173.132 143.611 147.389C143.611 145.302 145.302 143.611 147.389 143.611C173.132 143.611 194 122.742 194 97C194 71.2576 173.132 50.3896 147.389 50.3896C145.302 50.3896 143.611 48.6976 143.611 46.6104C143.611 20.8682 122.742 0 97 0Z" fill="#C4B9AB"/>
</svg>
