<svg width="241" height="241" viewBox="0 0 241 241" fill="none" xmlns="http://www.w3.org/2000/svg">
<path d="M117.284 2.85659C117.737 -0.952197 123.263 -0.952197 123.716 2.85659L127.507 34.8089C132.403 76.0679 164.932 108.597 206.191 113.493L238.143 117.284C241.952 117.737 241.952 123.263 238.143 123.716L206.191 127.507C164.932 132.403 132.403 164.932 127.507 206.191L123.716 238.143C123.263 241.952 117.737 241.952 117.284 238.143L113.493 206.191C108.597 164.932 76.0679 132.403 34.8089 127.507L2.85659 123.716C-0.952197 123.263 -0.952197 117.737 2.85659 117.284L34.8089 113.493C76.0679 108.597 108.597 76.0679 113.493 34.8089L117.284 2.85659Z" fill="#8e8e92"/>
</svg>
