<svg width="31" height="31" viewBox="0 0 31 31" fill="none" xmlns="http://www.w3.org/2000/svg">
<path d="M13.1241 1.65416C13.9403 -0.551389 17.0597 -0.551387 17.8759 1.65417L20.5696 8.93372C20.8261 9.62714 21.3729 10.1739 22.0663 10.4304L29.3458 13.1241C31.5514 13.9403 31.5514 17.0597 29.3458 17.8759L22.0663 20.5696C21.3729 20.8261 20.8261 21.3729 20.5696 22.0663L17.8759 29.3458C17.0597 31.5514 13.9403 31.5514 13.1241 29.3458L10.4304 22.0663C10.1739 21.3729 9.62714 20.8261 8.93372 20.5696L1.65416 17.8759C-0.551389 17.0597 -0.551387 13.9403 1.65417 13.1241L8.93372 10.4304C9.62714 10.1739 10.1739 9.62714 10.4304 8.93372L13.1241 1.65416Z" fill="#3F4249"/>
</svg>
