<svg width="614" height="522" viewBox="0 0 614 522" fill="none" xmlns="http://www.w3.org/2000/svg">
<circle cx="96" cy="399" r="76.5" stroke="#3F4249" stroke-width="3"/>
<circle cx="280" cy="445" r="77" fill="#3F4249"/>
<circle cx="188.5" cy="273.5" r="110.5" fill="#d0ff00"/>
<circle cx="433.5" cy="427.5" r="37.5" fill="#d0ff00"/>
<circle cx="501.5" cy="376.5" r="59.5" fill="#3F4249"/>
<circle cx="68.0214" cy="118.021" r="66.5214" stroke="#3F4249" stroke-width="3"/>
<ellipse cx="517" cy="111.5" rx="97" ry="96.5" fill="#d0ff00"/>
<circle cx="361" cy="269" r="103.5" stroke="#3F4249" stroke-width="3"/>
<path d="M136.39 290.3C135.143 290.3 134.1 290.047 133.26 289.54C132.427 289.033 131.797 288.347 131.37 287.48C130.95 286.607 130.74 285.627 130.74 284.54V276H132.98V284.52C132.98 285.753 133.287 286.673 133.9 287.28C134.513 287.88 135.343 288.18 136.39 288.18C137.437 288.18 138.267 287.88 138.88 287.28C139.493 286.673 139.8 285.753 139.8 284.52V276H142.05V284.54C142.05 285.62 141.837 286.597 141.41 287.47C140.99 288.337 140.36 289.027 139.52 289.54C138.687 290.047 137.643 290.3 136.39 290.3ZM144.315 290L148.855 282.82L144.555 276H147.235L150.465 281.17L153.915 276H156.515L151.995 282.88L156.645 290H153.955L150.375 284.49L146.925 290H144.315ZM163.616 290V280.1H165.816V281.47C166.189 280.85 166.643 280.417 167.176 280.17C167.709 279.917 168.283 279.79 168.896 279.79C169.096 279.79 169.286 279.8 169.466 279.82C169.646 279.84 169.819 279.87 169.986 279.91L169.696 282.18C169.496 282.12 169.293 282.073 169.086 282.04C168.879 282.007 168.673 281.99 168.466 281.99C167.699 281.99 167.066 282.227 166.566 282.7C166.066 283.167 165.816 283.803 165.816 284.61V290H163.616ZM176.144 290.3C175.077 290.3 174.14 290.083 173.334 289.65C172.527 289.21 171.897 288.597 171.444 287.81C170.997 287.023 170.774 286.11 170.774 285.07C170.774 284.31 170.904 283.61 171.164 282.97C171.424 282.323 171.79 281.763 172.264 281.29C172.737 280.817 173.29 280.45 173.924 280.19C174.564 279.93 175.26 279.8 176.014 279.8C176.834 279.8 177.564 279.947 178.204 280.24C178.844 280.527 179.374 280.93 179.794 281.45C180.22 281.97 180.52 282.58 180.694 283.28C180.874 283.973 180.904 284.727 180.784 285.54H172.884C172.87 286.133 173 286.653 173.274 287.1C173.547 287.54 173.937 287.883 174.444 288.13C174.957 288.377 175.56 288.5 176.254 288.5C176.814 288.5 177.354 288.417 177.874 288.25C178.4 288.077 178.877 287.823 179.304 287.49L180.154 289.07C179.834 289.33 179.447 289.553 178.994 289.74C178.54 289.92 178.067 290.057 177.574 290.15C177.08 290.25 176.604 290.3 176.144 290.3ZM173.014 283.92H178.624C178.604 283.173 178.364 282.587 177.904 282.16C177.45 281.733 176.804 281.52 175.964 281.52C175.15 281.52 174.474 281.733 173.934 282.16C173.4 282.587 173.094 283.173 173.014 283.92ZM186.409 290.29C185.589 290.29 184.822 290.173 184.109 289.94C183.396 289.707 182.796 289.393 182.309 289L183.139 287.39C183.599 287.75 184.116 288.033 184.689 288.24C185.269 288.447 185.839 288.55 186.399 288.55C187.046 288.55 187.549 288.437 187.909 288.21C188.269 287.983 188.449 287.667 188.449 287.26C188.449 286.873 188.292 286.59 187.979 286.41C187.672 286.223 187.086 286.03 186.219 285.83C184.972 285.57 184.066 285.203 183.499 284.73C182.939 284.25 182.659 283.587 182.659 282.74C182.659 282.147 182.822 281.623 183.149 281.17C183.482 280.71 183.939 280.35 184.519 280.09C185.099 279.83 185.769 279.7 186.529 279.7C187.269 279.7 187.966 279.807 188.619 280.02C189.272 280.227 189.839 280.52 190.319 280.9L189.539 282.52C189.292 282.3 189.006 282.11 188.679 281.95C188.352 281.79 188.006 281.667 187.639 281.58C187.279 281.487 186.919 281.44 186.559 281.44C185.999 281.44 185.542 281.55 185.189 281.77C184.842 281.983 184.669 282.28 184.669 282.66C184.669 283.053 184.836 283.343 185.169 283.53C185.502 283.717 186.076 283.903 186.889 284.09C188.169 284.37 189.086 284.743 189.639 285.21C190.192 285.677 190.469 286.323 190.469 287.15C190.469 287.783 190.299 288.337 189.959 288.81C189.619 289.277 189.142 289.64 188.529 289.9C187.922 290.16 187.216 290.29 186.409 290.29ZM197.472 290.3C196.405 290.3 195.469 290.083 194.662 289.65C193.855 289.21 193.225 288.597 192.772 287.81C192.325 287.023 192.102 286.11 192.102 285.07C192.102 284.31 192.232 283.61 192.492 282.97C192.752 282.323 193.119 281.763 193.592 281.29C194.065 280.817 194.619 280.45 195.252 280.19C195.892 279.93 196.589 279.8 197.342 279.8C198.162 279.8 198.892 279.947 199.532 280.24C200.172 280.527 200.702 280.93 201.122 281.45C201.549 281.97 201.849 282.58 202.022 283.28C202.202 283.973 202.232 284.727 202.112 285.54H194.212C194.199 286.133 194.329 286.653 194.602 287.1C194.875 287.54 195.265 287.883 195.772 288.13C196.285 288.377 196.889 288.5 197.582 288.5C198.142 288.5 198.682 288.417 199.202 288.25C199.729 288.077 200.205 287.823 200.632 287.49L201.482 289.07C201.162 289.33 200.775 289.553 200.322 289.74C199.869 289.92 199.395 290.057 198.902 290.15C198.409 290.25 197.932 290.3 197.472 290.3ZM194.342 283.92H199.952C199.932 283.173 199.692 282.587 199.232 282.16C198.779 281.733 198.132 281.52 197.292 281.52C196.479 281.52 195.802 281.733 195.262 282.16C194.729 282.587 194.422 283.173 194.342 283.92ZM208.685 290.3C207.698 290.3 206.825 290.073 206.065 289.62C205.312 289.16 204.718 288.537 204.285 287.75C203.858 286.957 203.645 286.057 203.645 285.05C203.645 284.297 203.768 283.6 204.015 282.96C204.262 282.32 204.608 281.763 205.055 281.29C205.502 280.817 206.035 280.45 206.655 280.19C207.275 279.93 207.952 279.8 208.685 279.8C209.658 279.8 210.472 280.007 211.125 280.42C211.785 280.833 212.288 281.367 212.635 282.02L212.325 282.49V280.1H214.285V290H212.325V287.61L212.635 288.08C212.288 288.733 211.785 289.267 211.125 289.68C210.472 290.093 209.658 290.3 208.685 290.3ZM208.975 288.35C209.575 288.35 210.112 288.217 210.585 287.95C211.058 287.677 211.428 287.293 211.695 286.8C211.968 286.307 212.105 285.723 212.105 285.05C212.105 284.377 211.968 283.793 211.695 283.3C211.428 282.8 211.058 282.417 210.585 282.15C210.112 281.883 209.575 281.75 208.975 281.75C208.368 281.75 207.828 281.883 207.355 282.15C206.888 282.417 206.518 282.8 206.245 283.3C205.972 283.793 205.835 284.377 205.835 285.05C205.835 285.723 205.972 286.307 206.245 286.8C206.518 287.293 206.888 287.677 207.355 287.95C207.828 288.217 208.368 288.35 208.975 288.35ZM217.346 290V280.1H219.546V281.47C219.92 280.85 220.373 280.417 220.906 280.17C221.44 279.917 222.013 279.79 222.626 279.79C222.826 279.79 223.016 279.8 223.196 279.82C223.376 279.84 223.55 279.87 223.716 279.91L223.426 282.18C223.226 282.12 223.023 282.073 222.816 282.04C222.61 282.007 222.403 281.99 222.196 281.99C221.43 281.99 220.796 282.227 220.296 282.7C219.796 283.167 219.546 283.803 219.546 284.61V290H217.346ZM229.894 290.3C228.854 290.3 227.928 290.073 227.114 289.62C226.301 289.16 225.661 288.537 225.194 287.75C224.734 286.957 224.504 286.057 224.504 285.05C224.504 284.29 224.641 283.593 224.914 282.96C225.188 282.32 225.574 281.763 226.074 281.29C226.574 280.817 227.161 280.45 227.834 280.19C228.514 279.93 229.251 279.8 230.044 279.8C230.711 279.8 231.328 279.89 231.894 280.07C232.468 280.243 232.994 280.513 233.474 280.88L232.414 282.56C232.108 282.287 231.754 282.083 231.354 281.95C230.961 281.817 230.541 281.75 230.094 281.75C229.401 281.75 228.804 281.88 228.304 282.14C227.804 282.4 227.414 282.777 227.134 283.27C226.861 283.757 226.724 284.347 226.724 285.04C226.724 286.073 227.024 286.883 227.624 287.47C228.231 288.057 229.054 288.35 230.094 288.35C230.588 288.35 231.054 288.26 231.494 288.08C231.934 287.893 232.301 287.65 232.594 287.35L233.644 289.02C233.118 289.42 232.531 289.733 231.884 289.96C231.238 290.187 230.574 290.3 229.894 290.3ZM235.667 290V275.6H237.867V282.12L237.417 281.63C237.857 281.017 238.387 280.56 239.007 280.26C239.627 279.953 240.28 279.8 240.967 279.8C241.867 279.8 242.617 279.983 243.217 280.35C243.817 280.71 244.267 281.177 244.567 281.75C244.867 282.323 245.017 282.92 245.017 283.54V290H242.817V284.17C242.817 283.477 242.6 282.913 242.167 282.48C241.733 282.047 241.143 281.827 240.397 281.82C239.903 281.82 239.467 281.93 239.087 282.15C238.707 282.363 238.407 282.667 238.187 283.06C237.973 283.453 237.867 283.91 237.867 284.43V290H235.667Z" fill="#3F4249"/>
<path d="M223.53 458.2V444.1H225.51V445.49C225.903 444.99 226.407 444.583 227.02 444.27C227.633 443.957 228.39 443.8 229.29 443.8C230.257 443.8 231.113 444.03 231.86 444.49C232.613 444.943 233.2 445.567 233.62 446.36C234.04 447.147 234.25 448.043 234.25 449.05C234.25 449.777 234.13 450.46 233.89 451.1C233.65 451.733 233.307 452.29 232.86 452.77C232.42 453.25 231.893 453.627 231.28 453.9C230.673 454.167 230 454.3 229.26 454.3C228.487 454.3 227.807 454.16 227.22 453.88C226.633 453.6 226.133 453.223 225.72 452.75V458.2H223.53ZM228.89 452.35C229.503 452.35 230.047 452.217 230.52 451.95C231 451.677 231.373 451.293 231.64 450.8C231.913 450.307 232.05 449.723 232.05 449.05C232.05 448.377 231.913 447.793 231.64 447.3C231.367 446.8 230.99 446.417 230.51 446.15C230.037 445.883 229.497 445.75 228.89 445.75C228.277 445.75 227.73 445.883 227.25 446.15C226.777 446.417 226.403 446.8 226.13 447.3C225.857 447.793 225.72 448.377 225.72 449.05C225.72 449.723 225.857 450.307 226.13 450.8C226.403 451.293 226.777 451.677 227.25 451.95C227.73 452.217 228.277 452.35 228.89 452.35ZM236.46 454V444.1H238.66V445.47C239.033 444.85 239.486 444.417 240.02 444.17C240.553 443.917 241.126 443.79 241.74 443.79C241.94 443.79 242.13 443.8 242.31 443.82C242.49 443.84 242.663 443.87 242.83 443.91L242.54 446.18C242.34 446.12 242.136 446.073 241.93 446.04C241.723 446.007 241.516 445.99 241.31 445.99C240.543 445.99 239.91 446.227 239.41 446.7C238.91 447.167 238.66 447.803 238.66 448.61V454H236.46ZM248.978 454.3C247.944 454.3 247.021 454.063 246.208 453.59C245.401 453.11 244.768 452.473 244.308 451.68C243.848 450.88 243.618 450.003 243.618 449.05C243.618 448.343 243.748 447.677 244.008 447.05C244.274 446.417 244.648 445.857 245.128 445.37C245.614 444.883 246.184 444.5 246.838 444.22C247.491 443.94 248.208 443.8 248.988 443.8C250.021 443.8 250.941 444.04 251.748 444.52C252.561 444.993 253.198 445.63 253.658 446.43C254.118 447.223 254.348 448.097 254.348 449.05C254.348 449.75 254.214 450.417 253.948 451.05C253.688 451.683 253.318 452.243 252.838 452.73C252.358 453.217 251.791 453.6 251.138 453.88C250.484 454.16 249.764 454.3 248.978 454.3ZM248.978 452.35C249.591 452.35 250.134 452.217 250.608 451.95C251.088 451.677 251.464 451.293 251.738 450.8C252.011 450.307 252.148 449.723 252.148 449.05C252.148 448.377 252.011 447.793 251.738 447.3C251.464 446.8 251.088 446.417 250.608 446.15C250.134 445.883 249.591 445.75 248.978 445.75C248.364 445.75 247.818 445.883 247.338 446.15C246.864 446.417 246.491 446.8 246.218 447.3C245.951 447.793 245.818 448.377 245.818 449.05C245.818 449.723 245.954 450.307 246.228 450.8C246.501 451.293 246.874 451.677 247.348 451.95C247.828 452.217 248.371 452.35 248.978 452.35ZM260.62 454.3C259.653 454.3 258.88 454.02 258.3 453.46C257.72 452.9 257.43 452.043 257.43 450.89V441.21H259.63V444.1H262.38V445.92H259.63V450.41C259.63 451.103 259.76 451.593 260.02 451.88C260.286 452.16 260.66 452.3 261.14 452.3C261.373 452.3 261.593 452.273 261.8 452.22C262.006 452.167 262.193 452.097 262.36 452.01L262.75 453.79C262.463 453.937 262.133 454.057 261.76 454.15C261.393 454.25 261.013 454.3 260.62 454.3ZM255.26 445.92V444.1H257.72V445.92H255.26ZM269.505 454.3C268.472 454.3 267.548 454.063 266.735 453.59C265.928 453.11 265.295 452.473 264.835 451.68C264.375 450.88 264.145 450.003 264.145 449.05C264.145 448.343 264.275 447.677 264.535 447.05C264.802 446.417 265.175 445.857 265.655 445.37C266.142 444.883 266.712 444.5 267.365 444.22C268.018 443.94 268.735 443.8 269.515 443.8C270.548 443.8 271.468 444.04 272.275 444.52C273.088 444.993 273.725 445.63 274.185 446.43C274.645 447.223 274.875 448.097 274.875 449.05C274.875 449.75 274.742 450.417 274.475 451.05C274.215 451.683 273.845 452.243 273.365 452.73C272.885 453.217 272.318 453.6 271.665 453.88C271.012 454.16 270.292 454.3 269.505 454.3ZM269.505 452.35C270.118 452.35 270.662 452.217 271.135 451.95C271.615 451.677 271.992 451.293 272.265 450.8C272.538 450.307 272.675 449.723 272.675 449.05C272.675 448.377 272.538 447.793 272.265 447.3C271.992 446.8 271.615 446.417 271.135 446.15C270.662 445.883 270.118 445.75 269.505 445.75C268.892 445.75 268.345 445.883 267.865 446.15C267.392 446.417 267.018 446.8 266.745 447.3C266.478 447.793 266.345 448.377 266.345 449.05C266.345 449.723 266.482 450.307 266.755 450.8C267.028 451.293 267.402 451.677 267.875 451.95C268.355 452.217 268.898 452.35 269.505 452.35ZM281.147 454.3C280.18 454.3 279.407 454.02 278.827 453.46C278.247 452.9 277.957 452.043 277.957 450.89V441.21H280.157V444.1H282.907V445.92H280.157V450.41C280.157 451.103 280.287 451.593 280.547 451.88C280.814 452.16 281.187 452.3 281.667 452.3C281.9 452.3 282.12 452.273 282.327 452.22C282.534 452.167 282.72 452.097 282.887 452.01L283.277 453.79C282.99 453.937 282.66 454.057 282.287 454.15C281.92 454.25 281.54 454.3 281.147 454.3ZM275.787 445.92V444.1H278.247V445.92H275.787ZM286.431 458.48C286.071 458.48 285.717 458.44 285.371 458.36C285.024 458.28 284.684 458.143 284.351 457.95L284.851 456.07C285.057 456.203 285.284 456.303 285.531 456.37C285.777 456.437 285.997 456.47 286.191 456.47C286.657 456.47 287.024 456.36 287.291 456.14C287.557 455.92 287.767 455.58 287.921 455.12L288.251 454.16L284.351 444.1H286.761L289.501 451.78L292.171 444.1H294.501L290.221 455.43C289.914 456.223 289.571 456.84 289.191 457.28C288.811 457.727 288.391 458.037 287.931 458.21C287.471 458.39 286.971 458.48 286.431 458.48ZM296.225 458.2V444.1H298.205V445.49C298.599 444.99 299.102 444.583 299.715 444.27C300.329 443.957 301.085 443.8 301.985 443.8C302.952 443.8 303.809 444.03 304.555 444.49C305.309 444.943 305.895 445.567 306.315 446.36C306.735 447.147 306.945 448.043 306.945 449.05C306.945 449.777 306.825 450.46 306.585 451.1C306.345 451.733 306.002 452.29 305.555 452.77C305.115 453.25 304.589 453.627 303.975 453.9C303.369 454.167 302.695 454.3 301.955 454.3C301.182 454.3 300.502 454.16 299.915 453.88C299.329 453.6 298.829 453.223 298.415 452.75V458.2H296.225ZM301.585 452.35C302.199 452.35 302.742 452.217 303.215 451.95C303.695 451.677 304.069 451.293 304.335 450.8C304.609 450.307 304.745 449.723 304.745 449.05C304.745 448.377 304.609 447.793 304.335 447.3C304.062 446.8 303.685 446.417 303.205 446.15C302.732 445.883 302.192 445.75 301.585 445.75C300.972 445.75 300.425 445.883 299.945 446.15C299.472 446.417 299.099 446.8 298.825 447.3C298.552 447.793 298.415 448.377 298.415 449.05C298.415 449.723 298.552 450.307 298.825 450.8C299.099 451.293 299.472 451.677 299.945 451.95C300.425 452.217 300.972 452.35 301.585 452.35ZM309.155 454V444.1H311.355V454H309.155ZM310.255 442.33C309.862 442.33 309.522 442.203 309.235 441.95C308.948 441.697 308.805 441.363 308.805 440.95C308.805 440.543 308.948 440.213 309.235 439.96C309.522 439.7 309.862 439.57 310.255 439.57C310.648 439.57 310.988 439.7 311.275 439.96C311.562 440.213 311.705 440.543 311.705 440.95C311.705 441.363 311.562 441.697 311.275 441.95C310.988 442.203 310.648 442.33 310.255 442.33ZM314.409 454V444.1H316.609V445.36C317.022 444.807 317.502 444.41 318.049 444.17C318.596 443.923 319.162 443.8 319.749 443.8C320.656 443.8 321.406 443.98 321.999 444.34C322.592 444.7 323.032 445.163 323.319 445.73C323.612 446.297 323.759 446.88 323.759 447.48V454H321.559V448.16C321.559 447.453 321.346 446.887 320.919 446.46C320.499 446.033 319.912 445.82 319.159 445.82C318.666 445.82 318.226 445.93 317.839 446.15C317.459 446.37 317.159 446.677 316.939 447.07C316.719 447.457 316.609 447.91 316.609 448.43V454H314.409ZM331.034 458.5C330.374 458.5 329.72 458.437 329.074 458.31C328.434 458.183 327.824 457.97 327.244 457.67L327.794 455.85C328.3 456.097 328.817 456.277 329.344 456.39C329.877 456.503 330.404 456.56 330.924 456.56C332.07 456.56 332.944 456.287 333.544 455.74C334.144 455.2 334.444 454.477 334.444 453.57V451.41L334.744 451.88C334.417 452.533 333.927 453.063 333.274 453.47C332.627 453.87 331.817 454.07 330.844 454.07C329.844 454.07 328.967 453.847 328.214 453.4C327.467 452.947 326.884 452.333 326.464 451.56C326.05 450.78 325.844 449.907 325.844 448.94C325.844 448.213 325.964 447.54 326.204 446.92C326.444 446.293 326.784 445.747 327.224 445.28C327.664 444.813 328.19 444.45 328.804 444.19C329.417 443.93 330.097 443.8 330.844 443.8C331.817 443.8 332.627 444.003 333.274 444.41C333.927 444.81 334.417 445.337 334.744 445.99L334.444 446.46V444.09H336.494V453.08C336.494 454.793 336.034 456.123 335.114 457.07C334.194 458.023 332.834 458.5 331.034 458.5ZM331.174 452.16C331.78 452.16 332.32 452.027 332.794 451.76C333.267 451.493 333.637 451.12 333.904 450.64C334.17 450.16 334.304 449.593 334.304 448.94C334.304 448.287 334.17 447.717 333.904 447.23C333.637 446.743 333.267 446.37 332.794 446.11C332.32 445.843 331.78 445.71 331.174 445.71C330.56 445.71 330.017 445.843 329.544 446.11C329.077 446.37 328.71 446.743 328.444 447.23C328.177 447.717 328.044 448.287 328.044 448.94C328.044 449.593 328.177 450.16 328.444 450.64C328.71 451.12 329.077 451.493 329.544 451.76C330.017 452.027 330.56 452.16 331.174 452.16Z" fill="#C4B9AB"/>
<path d="M36.53 396V386.1H38.73V396H36.53ZM37.63 384.33C37.2367 384.33 36.8967 384.203 36.61 383.95C36.3233 383.697 36.18 383.363 36.18 382.95C36.18 382.543 36.3233 382.213 36.61 381.96C36.8967 381.7 37.2367 381.57 37.63 381.57C38.0233 381.57 38.3633 381.7 38.65 381.96C38.9367 382.213 39.08 382.543 39.08 382.95C39.08 383.363 38.9367 383.697 38.65 383.95C38.3633 384.203 38.0233 384.33 37.63 384.33ZM41.7839 396V386.1H43.9839V387.36C44.3972 386.807 44.8772 386.41 45.4239 386.17C45.9706 385.923 46.5372 385.8 47.1239 385.8C48.0306 385.8 48.7806 385.98 49.3739 386.34C49.9672 386.7 50.4072 387.163 50.6939 387.73C50.9872 388.297 51.1339 388.88 51.1339 389.48V396H48.9339V390.16C48.9339 389.453 48.7206 388.887 48.2939 388.46C47.8739 388.033 47.2872 387.82 46.5339 387.82C46.0406 387.82 45.6006 387.93 45.2139 388.15C44.8339 388.37 44.5339 388.677 44.3139 389.07C44.0939 389.457 43.9839 389.91 43.9839 390.43V396H41.7839ZM54.8633 396V384.48C54.8633 383.493 55.1466 382.717 55.7133 382.15C56.2866 381.583 57.0766 381.3 58.0833 381.3C58.4499 381.3 58.7833 381.34 59.0833 381.42C59.3899 381.493 59.6733 381.6 59.9333 381.74L59.5233 383.48C59.3299 383.373 59.1433 383.3 58.9633 383.26C58.7833 383.22 58.6066 383.2 58.4333 383.2C58.0266 383.2 57.6933 383.303 57.4333 383.51C57.1799 383.717 57.0533 384.07 57.0533 384.57V386.1H59.6533V387.92H57.0533V396H54.8633ZM52.8733 387.92V386.1H55.1533V387.92H52.8733ZM66.0595 396.3C65.0262 396.3 64.1029 396.063 63.2895 395.59C62.4829 395.11 61.8495 394.473 61.3895 393.68C60.9295 392.88 60.6995 392.003 60.6995 391.05C60.6995 390.343 60.8295 389.677 61.0895 389.05C61.3562 388.417 61.7295 387.857 62.2095 387.37C62.6962 386.883 63.2662 386.5 63.9195 386.22C64.5729 385.94 65.2895 385.8 66.0695 385.8C67.1029 385.8 68.0229 386.04 68.8295 386.52C69.6429 386.993 70.2795 387.63 70.7395 388.43C71.1995 389.223 71.4295 390.097 71.4295 391.05C71.4295 391.75 71.2962 392.417 71.0295 393.05C70.7695 393.683 70.3995 394.243 69.9195 394.73C69.4395 395.217 68.8729 395.6 68.2195 395.88C67.5662 396.16 66.8462 396.3 66.0595 396.3ZM66.0595 394.35C66.6729 394.35 67.2162 394.217 67.6895 393.95C68.1695 393.677 68.5462 393.293 68.8195 392.8C69.0929 392.307 69.2295 391.723 69.2295 391.05C69.2295 390.377 69.0929 389.793 68.8195 389.3C68.5462 388.8 68.1695 388.417 67.6895 388.15C67.2162 387.883 66.6729 387.75 66.0595 387.75C65.4462 387.75 64.8995 387.883 64.4195 388.15C63.9462 388.417 63.5729 388.8 63.2995 389.3C63.0329 389.793 62.8995 390.377 62.8995 391.05C62.8995 391.723 63.0362 392.307 63.3095 392.8C63.5829 393.293 63.9562 393.677 64.4295 393.95C64.9095 394.217 65.4529 394.35 66.0595 394.35ZM73.6394 396V386.1H75.8394V387.47C76.2127 386.85 76.666 386.417 77.1994 386.17C77.7327 385.917 78.306 385.79 78.9194 385.79C79.1194 385.79 79.3094 385.8 79.4894 385.82C79.6694 385.84 79.8427 385.87 80.0094 385.91L79.7194 388.18C79.5194 388.12 79.316 388.073 79.1094 388.04C78.9027 388.007 78.696 387.99 78.4894 387.99C77.7227 387.99 77.0894 388.227 76.5894 388.7C76.0894 389.167 75.8394 389.803 75.8394 390.61V396H73.6394ZM81.8425 396V386.1H84.0425V387.46C84.3092 387.073 84.6158 386.76 84.9625 386.52C85.3092 386.273 85.6758 386.093 86.0625 385.98C86.4492 385.86 86.8425 385.8 87.2425 385.8C88.0492 385.8 88.7192 385.977 89.2525 386.33C89.7925 386.683 90.1725 387.137 90.3925 387.69C90.8858 386.97 91.4592 386.477 92.1125 386.21C92.7658 385.937 93.4225 385.8 94.0825 385.8C94.9958 385.8 95.7258 385.98 96.2725 386.34C96.8192 386.7 97.2125 387.163 97.4525 387.73C97.6992 388.297 97.8225 388.88 97.8225 389.48V396H95.6225V390.12C95.6225 389.433 95.4325 388.88 95.0525 388.46C94.6792 388.033 94.1325 387.82 93.4125 387.82C92.9392 387.82 92.5158 387.923 92.1425 388.13C91.7692 388.337 91.4725 388.623 91.2525 388.99C91.0392 389.35 90.9325 389.767 90.9325 390.24V396H88.7325V390.12C88.7325 389.433 88.5458 388.88 88.1725 388.46C87.7992 388.033 87.2492 387.82 86.5225 387.82C86.0558 387.82 85.6325 387.923 85.2525 388.13C84.8792 388.337 84.5825 388.623 84.3625 388.99C84.1492 389.35 84.0425 389.767 84.0425 390.24V396H81.8425ZM104.978 396.3C103.991 396.3 103.118 396.073 102.358 395.62C101.604 395.16 101.011 394.537 100.578 393.75C100.151 392.957 99.9378 392.057 99.9378 391.05C99.9378 390.297 100.061 389.6 100.308 388.96C100.554 388.32 100.901 387.763 101.348 387.29C101.794 386.817 102.328 386.45 102.948 386.19C103.568 385.93 104.244 385.8 104.978 385.8C105.951 385.8 106.764 386.007 107.418 386.42C108.078 386.833 108.581 387.367 108.928 388.02L108.618 388.49V386.1H110.578V396H108.618V393.61L108.928 394.08C108.581 394.733 108.078 395.267 107.418 395.68C106.764 396.093 105.951 396.3 104.978 396.3ZM105.268 394.35C105.868 394.35 106.404 394.217 106.878 393.95C107.351 393.677 107.721 393.293 107.988 392.8C108.261 392.307 108.398 391.723 108.398 391.05C108.398 390.377 108.261 389.793 107.988 389.3C107.721 388.8 107.351 388.417 106.878 388.15C106.404 387.883 105.868 387.75 105.268 387.75C104.661 387.75 104.121 387.883 103.648 388.15C103.181 388.417 102.811 388.8 102.538 389.3C102.264 389.793 102.128 390.377 102.128 391.05C102.128 391.723 102.264 392.307 102.538 392.8C102.811 393.293 103.181 393.677 103.648 393.95C104.121 394.217 104.661 394.35 105.268 394.35ZM117.799 396.3C116.833 396.3 116.059 396.02 115.479 395.46C114.899 394.9 114.609 394.043 114.609 392.89V383.21H116.809V386.1H119.559V387.92H116.809V392.41C116.809 393.103 116.939 393.593 117.199 393.88C117.466 394.16 117.839 394.3 118.319 394.3C118.553 394.3 118.773 394.273 118.979 394.22C119.186 394.167 119.373 394.097 119.539 394.01L119.929 395.79C119.643 395.937 119.313 396.057 118.939 396.15C118.573 396.25 118.193 396.3 117.799 396.3ZM112.439 387.92V386.1H114.899V387.92H112.439ZM122.233 396V386.1H124.433V396H122.233ZM123.333 384.33C122.94 384.33 122.6 384.203 122.313 383.95C122.026 383.697 121.883 383.363 121.883 382.95C121.883 382.543 122.026 382.213 122.313 381.96C122.6 381.7 122.94 381.57 123.333 381.57C123.726 381.57 124.066 381.7 124.353 381.96C124.64 382.213 124.783 382.543 124.783 382.95C124.783 383.363 124.64 383.697 124.353 383.95C124.066 384.203 123.726 384.33 123.333 384.33ZM131.997 396.3C130.964 396.3 130.04 396.063 129.227 395.59C128.42 395.11 127.787 394.473 127.327 393.68C126.867 392.88 126.637 392.003 126.637 391.05C126.637 390.343 126.767 389.677 127.027 389.05C127.294 388.417 127.667 387.857 128.147 387.37C128.634 386.883 129.204 386.5 129.857 386.22C130.51 385.94 131.227 385.8 132.007 385.8C133.04 385.8 133.96 386.04 134.767 386.52C135.58 386.993 136.217 387.63 136.677 388.43C137.137 389.223 137.367 390.097 137.367 391.05C137.367 391.75 137.234 392.417 136.967 393.05C136.707 393.683 136.337 394.243 135.857 394.73C135.377 395.217 134.81 395.6 134.157 395.88C133.504 396.16 132.784 396.3 131.997 396.3ZM131.997 394.35C132.61 394.35 133.154 394.217 133.627 393.95C134.107 393.677 134.484 393.293 134.757 392.8C135.03 392.307 135.167 391.723 135.167 391.05C135.167 390.377 135.03 389.793 134.757 389.3C134.484 388.8 134.107 388.417 133.627 388.15C133.154 387.883 132.61 387.75 131.997 387.75C131.384 387.75 130.837 387.883 130.357 388.15C129.884 388.417 129.51 388.8 129.237 389.3C128.97 389.793 128.837 390.377 128.837 391.05C128.837 391.723 128.974 392.307 129.247 392.8C129.52 393.293 129.894 393.677 130.367 393.95C130.847 394.217 131.39 394.35 131.997 394.35ZM139.577 396V386.1H141.777V387.36C142.19 386.807 142.67 386.41 143.217 386.17C143.764 385.923 144.33 385.8 144.917 385.8C145.824 385.8 146.574 385.98 147.167 386.34C147.76 386.7 148.2 387.163 148.487 387.73C148.78 388.297 148.927 388.88 148.927 389.48V396H146.727V390.16C146.727 389.453 146.514 388.887 146.087 388.46C145.667 388.033 145.08 387.82 144.327 387.82C143.834 387.82 143.394 387.93 143.007 388.15C142.627 388.37 142.327 388.677 142.107 389.07C141.887 389.457 141.777 389.91 141.777 390.43V396H139.577ZM40.72 421.3C39.7333 421.3 38.86 421.073 38.1 420.62C37.3467 420.16 36.7533 419.537 36.32 418.75C35.8933 417.957 35.68 417.057 35.68 416.05C35.68 415.297 35.8033 414.6 36.05 413.96C36.2967 413.32 36.6433 412.763 37.09 412.29C37.5367 411.817 38.07 411.45 38.69 411.19C39.31 410.93 39.9867 410.8 40.72 410.8C41.6933 410.8 42.5067 411.007 43.16 411.42C43.82 411.833 44.3233 412.367 44.67 413.02L44.36 413.49V411.1H46.32V421H44.36V418.61L44.67 419.08C44.3233 419.733 43.82 420.267 43.16 420.68C42.5067 421.093 41.6933 421.3 40.72 421.3ZM41.01 419.35C41.61 419.35 42.1467 419.217 42.62 418.95C43.0933 418.677 43.4633 418.293 43.73 417.8C44.0033 417.307 44.14 416.723 44.14 416.05C44.14 415.377 44.0033 414.793 43.73 414.3C43.4633 413.8 43.0933 413.417 42.62 413.15C42.1467 412.883 41.61 412.75 41.01 412.75C40.4033 412.75 39.8633 412.883 39.39 413.15C38.9233 413.417 38.5533 413.8 38.28 414.3C38.0067 414.793 37.87 415.377 37.87 416.05C37.87 416.723 38.0067 417.307 38.28 417.8C38.5533 418.293 38.9233 418.677 39.39 418.95C39.8633 419.217 40.4033 419.35 41.01 419.35ZM49.3816 421V411.1H51.5816V412.47C51.9549 411.85 52.4082 411.417 52.9416 411.17C53.4749 410.917 54.0482 410.79 54.6616 410.79C54.8616 410.79 55.0516 410.8 55.2316 410.82C55.4116 410.84 55.5849 410.87 55.7516 410.91L55.4616 413.18C55.2616 413.12 55.0582 413.073 54.8516 413.04C54.6449 413.007 54.4382 412.99 54.2316 412.99C53.4649 412.99 52.8316 413.227 52.3316 413.7C51.8316 414.167 51.5816 414.803 51.5816 415.61V421H49.3816ZM61.9294 421.3C60.8894 421.3 59.9627 421.073 59.1494 420.62C58.336 420.16 57.696 419.537 57.2294 418.75C56.7694 417.957 56.5394 417.057 56.5394 416.05C56.5394 415.29 56.676 414.593 56.9494 413.96C57.2227 413.32 57.6094 412.763 58.1094 412.29C58.6094 411.817 59.196 411.45 59.8694 411.19C60.5494 410.93 61.286 410.8 62.0794 410.8C62.746 410.8 63.3627 410.89 63.9294 411.07C64.5027 411.243 65.0294 411.513 65.5094 411.88L64.4494 413.56C64.1427 413.287 63.7894 413.083 63.3894 412.95C62.996 412.817 62.576 412.75 62.1294 412.75C61.436 412.75 60.8394 412.88 60.3394 413.14C59.8394 413.4 59.4494 413.777 59.1694 414.27C58.896 414.757 58.7594 415.347 58.7594 416.04C58.7594 417.073 59.0594 417.883 59.6594 418.47C60.266 419.057 61.0894 419.35 62.1294 419.35C62.6227 419.35 63.0894 419.26 63.5294 419.08C63.9694 418.893 64.336 418.65 64.6294 418.35L65.6794 420.02C65.1527 420.42 64.566 420.733 63.9194 420.96C63.2727 421.187 62.6094 421.3 61.9294 421.3ZM67.7019 421V406.6H69.9019V413.12L69.4519 412.63C69.8919 412.017 70.4219 411.56 71.0419 411.26C71.6619 410.953 72.3152 410.8 73.0019 410.8C73.9019 410.8 74.6519 410.983 75.2519 411.35C75.8519 411.71 76.3019 412.177 76.6019 412.75C76.9019 413.323 77.0519 413.92 77.0519 414.54V421H74.8519V415.17C74.8519 414.477 74.6352 413.913 74.2019 413.48C73.7685 413.047 73.1785 412.827 72.4319 412.82C71.9385 412.82 71.5019 412.93 71.1219 413.15C70.7419 413.363 70.4419 413.667 70.2219 414.06C70.0085 414.453 69.9019 414.91 69.9019 415.43V421H67.7019ZM80.0066 421V411.1H82.2066V421H80.0066ZM81.1066 409.33C80.7132 409.33 80.3732 409.203 80.0866 408.95C79.7999 408.697 79.6566 408.363 79.6566 407.95C79.6566 407.543 79.7999 407.213 80.0866 406.96C80.3732 406.7 80.7132 406.57 81.1066 406.57C81.4999 406.57 81.8399 406.7 82.1266 406.96C82.4132 407.213 82.5566 407.543 82.5566 407.95C82.5566 408.363 82.4132 408.697 82.1266 408.95C81.8399 409.203 81.4999 409.33 81.1066 409.33ZM89.4205 421.3C88.4538 421.3 87.6805 421.02 87.1005 420.46C86.5205 419.9 86.2305 419.043 86.2305 417.89V408.21H88.4305V411.1H91.1805V412.92H88.4305V417.41C88.4305 418.103 88.5605 418.593 88.8205 418.88C89.0871 419.16 89.4605 419.3 89.9405 419.3C90.1738 419.3 90.3938 419.273 90.6005 419.22C90.8071 419.167 90.9938 419.097 91.1605 419.01L91.5505 420.79C91.2638 420.937 90.9338 421.057 90.5605 421.15C90.1938 421.25 89.8138 421.3 89.4205 421.3ZM84.0605 412.92V411.1H86.5205V412.92H84.0605ZM98.3156 421.3C97.249 421.3 96.3123 421.083 95.5056 420.65C94.699 420.21 94.069 419.597 93.6156 418.81C93.169 418.023 92.9456 417.11 92.9456 416.07C92.9456 415.31 93.0756 414.61 93.3356 413.97C93.5956 413.323 93.9623 412.763 94.4356 412.29C94.909 411.817 95.4623 411.45 96.0956 411.19C96.7356 410.93 97.4323 410.8 98.1856 410.8C99.0056 410.8 99.7356 410.947 100.376 411.24C101.016 411.527 101.546 411.93 101.966 412.45C102.392 412.97 102.692 413.58 102.866 414.28C103.046 414.973 103.076 415.727 102.956 416.54H95.0556C95.0423 417.133 95.1723 417.653 95.4456 418.1C95.719 418.54 96.109 418.883 96.6156 419.13C97.129 419.377 97.7323 419.5 98.4256 419.5C98.9856 419.5 99.5256 419.417 100.046 419.25C100.572 419.077 101.049 418.823 101.476 418.49L102.326 420.07C102.006 420.33 101.619 420.553 101.166 420.74C100.712 420.92 100.239 421.057 99.7456 421.15C99.2523 421.25 98.7756 421.3 98.3156 421.3ZM95.1856 414.92H100.796C100.776 414.173 100.536 413.587 100.076 413.16C99.6223 412.733 98.9756 412.52 98.1356 412.52C97.3223 412.52 96.6456 412.733 96.1056 413.16C95.5723 413.587 95.2656 414.173 95.1856 414.92ZM109.879 421.3C108.839 421.3 107.912 421.073 107.099 420.62C106.285 420.16 105.645 419.537 105.179 418.75C104.719 417.957 104.489 417.057 104.489 416.05C104.489 415.29 104.625 414.593 104.899 413.96C105.172 413.32 105.559 412.763 106.059 412.29C106.559 411.817 107.145 411.45 107.819 411.19C108.499 410.93 109.235 410.8 110.029 410.8C110.695 410.8 111.312 410.89 111.879 411.07C112.452 411.243 112.979 411.513 113.459 411.88L112.399 413.56C112.092 413.287 111.739 413.083 111.339 412.95C110.945 412.817 110.525 412.75 110.079 412.75C109.385 412.75 108.789 412.88 108.289 413.14C107.789 413.4 107.399 413.777 107.119 414.27C106.845 414.757 106.709 415.347 106.709 416.04C106.709 417.073 107.009 417.883 107.609 418.47C108.215 419.057 109.039 419.35 110.079 419.35C110.572 419.35 111.039 419.26 111.479 419.08C111.919 418.893 112.285 418.65 112.579 418.35L113.629 420.02C113.102 420.42 112.515 420.733 111.869 420.96C111.222 421.187 110.559 421.3 109.879 421.3ZM119.811 421.3C118.844 421.3 118.071 421.02 117.491 420.46C116.911 419.9 116.621 419.043 116.621 417.89V408.21H118.821V411.1H121.571V412.92H118.821V417.41C118.821 418.103 118.951 418.593 119.211 418.88C119.478 419.16 119.851 419.3 120.331 419.3C120.564 419.3 120.784 419.273 120.991 419.22C121.198 419.167 121.384 419.097 121.551 419.01L121.941 420.79C121.654 420.937 121.324 421.057 120.951 421.15C120.584 421.25 120.204 421.3 119.811 421.3ZM114.451 412.92V411.1H116.911V412.92H114.451ZM128.065 421.3C127.178 421.3 126.445 421.123 125.865 420.77C125.292 420.41 124.862 419.937 124.575 419.35C124.288 418.763 124.145 418.123 124.145 417.43V411.1H126.345V417.02C126.345 417.7 126.545 418.247 126.945 418.66C127.352 419.067 127.912 419.27 128.625 419.27C129.092 419.27 129.508 419.167 129.875 418.96C130.242 418.747 130.532 418.45 130.745 418.07C130.965 417.69 131.075 417.25 131.075 416.75V411.1H133.275V421H131.295V419.83C130.908 420.297 130.448 420.66 129.915 420.92C129.388 421.173 128.772 421.3 128.065 421.3ZM136.335 421V411.1H138.535V412.47C138.908 411.85 139.361 411.417 139.895 411.17C140.428 410.917 141.001 410.79 141.615 410.79C141.815 410.79 142.005 410.8 142.185 410.82C142.365 410.84 142.538 410.87 142.705 410.91L142.415 413.18C142.215 413.12 142.011 413.073 141.805 413.04C141.598 413.007 141.391 412.99 141.185 412.99C140.418 412.99 139.785 413.227 139.285 413.7C138.785 414.167 138.535 414.803 138.535 415.61V421H136.335ZM148.863 421.3C147.796 421.3 146.859 421.083 146.053 420.65C145.246 420.21 144.616 419.597 144.163 418.81C143.716 418.023 143.493 417.11 143.493 416.07C143.493 415.31 143.623 414.61 143.883 413.97C144.143 413.323 144.509 412.763 144.983 412.29C145.456 411.817 146.009 411.45 146.643 411.19C147.283 410.93 147.979 410.8 148.733 410.8C149.553 410.8 150.283 410.947 150.923 411.24C151.563 411.527 152.093 411.93 152.513 412.45C152.939 412.97 153.239 413.58 153.413 414.28C153.593 414.973 153.623 415.727 153.503 416.54H145.603C145.589 417.133 145.719 417.653 145.993 418.1C146.266 418.54 146.656 418.883 147.163 419.13C147.676 419.377 148.279 419.5 148.973 419.5C149.533 419.5 150.073 419.417 150.593 419.25C151.119 419.077 151.596 418.823 152.023 418.49L152.873 420.07C152.553 420.33 152.166 420.553 151.713 420.74C151.259 420.92 150.786 421.057 150.293 421.15C149.799 421.25 149.323 421.3 148.863 421.3ZM145.733 414.92H151.343C151.323 414.173 151.083 413.587 150.623 413.16C150.169 412.733 149.523 412.52 148.683 412.52C147.869 412.52 147.193 412.733 146.653 413.16C146.119 413.587 145.813 414.173 145.733 414.92Z" fill="#3F4249"/>
<path d="M471.85 375.5C471.19 375.5 470.537 375.437 469.89 375.31C469.25 375.183 468.64 374.97 468.06 374.67L468.61 372.85C469.117 373.097 469.633 373.277 470.16 373.39C470.693 373.503 471.22 373.56 471.74 373.56C472.887 373.56 473.76 373.287 474.36 372.74C474.96 372.2 475.26 371.477 475.26 370.57V368.41L475.56 368.88C475.233 369.533 474.743 370.063 474.09 370.47C473.443 370.87 472.633 371.07 471.66 371.07C470.66 371.07 469.783 370.847 469.03 370.4C468.283 369.947 467.7 369.333 467.28 368.56C466.867 367.78 466.66 366.907 466.66 365.94C466.66 365.213 466.78 364.54 467.02 363.92C467.26 363.293 467.6 362.747 468.04 362.28C468.48 361.813 469.007 361.45 469.62 361.19C470.233 360.93 470.913 360.8 471.66 360.8C472.633 360.8 473.443 361.003 474.09 361.41C474.743 361.81 475.233 362.337 475.56 362.99L475.26 363.46V361.09H477.31V370.08C477.31 371.793 476.85 373.123 475.93 374.07C475.01 375.023 473.65 375.5 471.85 375.5ZM471.99 369.16C472.597 369.16 473.137 369.027 473.61 368.76C474.083 368.493 474.453 368.12 474.72 367.64C474.987 367.16 475.12 366.593 475.12 365.94C475.12 365.287 474.987 364.717 474.72 364.23C474.453 363.743 474.083 363.37 473.61 363.11C473.137 362.843 472.597 362.71 471.99 362.71C471.377 362.71 470.833 362.843 470.36 363.11C469.893 363.37 469.527 363.743 469.26 364.23C468.993 364.717 468.86 365.287 468.86 365.94C468.86 366.593 468.993 367.16 469.26 367.64C469.527 368.12 469.893 368.493 470.36 368.76C470.833 369.027 471.377 369.16 471.99 369.16ZM480.362 371V361.1H482.562V362.47C482.935 361.85 483.389 361.417 483.922 361.17C484.455 360.917 485.029 360.79 485.642 360.79C485.842 360.79 486.032 360.8 486.212 360.82C486.392 360.84 486.565 360.87 486.732 360.91L486.442 363.18C486.242 363.12 486.039 363.073 485.832 363.04C485.625 363.007 485.419 362.99 485.212 362.99C484.445 362.99 483.812 363.227 483.312 363.7C482.812 364.167 482.562 364.803 482.562 365.61V371H480.362ZM492.56 371.3C491.573 371.3 490.7 371.073 489.94 370.62C489.187 370.16 488.593 369.537 488.16 368.75C487.733 367.957 487.52 367.057 487.52 366.05C487.52 365.297 487.643 364.6 487.89 363.96C488.137 363.32 488.483 362.763 488.93 362.29C489.377 361.817 489.91 361.45 490.53 361.19C491.15 360.93 491.827 360.8 492.56 360.8C493.533 360.8 494.347 361.007 495 361.42C495.66 361.833 496.163 362.367 496.51 363.02L496.2 363.49V361.1H498.16V371H496.2V368.61L496.51 369.08C496.163 369.733 495.66 370.267 495 370.68C494.347 371.093 493.533 371.3 492.56 371.3ZM492.85 369.35C493.45 369.35 493.987 369.217 494.46 368.95C494.933 368.677 495.303 368.293 495.57 367.8C495.843 367.307 495.98 366.723 495.98 366.05C495.98 365.377 495.843 364.793 495.57 364.3C495.303 363.8 494.933 363.417 494.46 363.15C493.987 362.883 493.45 362.75 492.85 362.75C492.243 362.75 491.703 362.883 491.23 363.15C490.763 363.417 490.393 363.8 490.12 364.3C489.847 364.793 489.71 365.377 489.71 366.05C489.71 366.723 489.847 367.307 490.12 367.8C490.393 368.293 490.763 368.677 491.23 368.95C491.703 369.217 492.243 369.35 492.85 369.35ZM501.221 375.2V361.1H503.201V362.49C503.595 361.99 504.098 361.583 504.711 361.27C505.325 360.957 506.081 360.8 506.981 360.8C507.948 360.8 508.805 361.03 509.551 361.49C510.305 361.943 510.891 362.567 511.311 363.36C511.731 364.147 511.941 365.043 511.941 366.05C511.941 366.777 511.821 367.46 511.581 368.1C511.341 368.733 510.998 369.29 510.551 369.77C510.111 370.25 509.585 370.627 508.971 370.9C508.365 371.167 507.691 371.3 506.951 371.3C506.178 371.3 505.498 371.16 504.911 370.88C504.325 370.6 503.825 370.223 503.411 369.75V375.2H501.221ZM506.581 369.35C507.195 369.35 507.738 369.217 508.211 368.95C508.691 368.677 509.065 368.293 509.331 367.8C509.605 367.307 509.741 366.723 509.741 366.05C509.741 365.377 509.605 364.793 509.331 364.3C509.058 363.8 508.681 363.417 508.201 363.15C507.728 362.883 507.188 362.75 506.581 362.75C505.968 362.75 505.421 362.883 504.941 363.15C504.468 363.417 504.095 363.8 503.821 364.3C503.548 364.793 503.411 365.377 503.411 366.05C503.411 366.723 503.548 367.307 503.821 367.8C504.095 368.293 504.468 368.677 504.941 368.95C505.421 369.217 505.968 369.35 506.581 369.35ZM514.151 371V356.6H516.351V363.12L515.901 362.63C516.341 362.017 516.871 361.56 517.491 361.26C518.111 360.953 518.764 360.8 519.451 360.8C520.351 360.8 521.101 360.983 521.701 361.35C522.301 361.71 522.751 362.177 523.051 362.75C523.351 363.323 523.501 363.92 523.501 364.54V371H521.301V365.17C521.301 364.477 521.084 363.913 520.651 363.48C520.218 363.047 519.628 362.827 518.881 362.82C518.388 362.82 517.951 362.93 517.571 363.15C517.191 363.363 516.891 363.667 516.671 364.06C516.458 364.453 516.351 364.91 516.351 365.43V371H514.151ZM526.456 371V361.1H528.656V371H526.456ZM527.556 359.33C527.162 359.33 526.822 359.203 526.536 358.95C526.249 358.697 526.106 358.363 526.106 357.95C526.106 357.543 526.249 357.213 526.536 356.96C526.822 356.7 527.162 356.57 527.556 356.57C527.949 356.57 528.289 356.7 528.576 356.96C528.862 357.213 529.006 357.543 529.006 357.95C529.006 358.363 528.862 358.697 528.576 358.95C528.289 359.203 527.949 359.33 527.556 359.33ZM536.25 371.3C535.21 371.3 534.283 371.073 533.47 370.62C532.656 370.16 532.016 369.537 531.55 368.75C531.09 367.957 530.86 367.057 530.86 366.05C530.86 365.29 530.996 364.593 531.27 363.96C531.543 363.32 531.93 362.763 532.43 362.29C532.93 361.817 533.516 361.45 534.19 361.19C534.87 360.93 535.606 360.8 536.4 360.8C537.066 360.8 537.683 360.89 538.25 361.07C538.823 361.243 539.35 361.513 539.83 361.88L538.77 363.56C538.463 363.287 538.11 363.083 537.71 362.95C537.316 362.817 536.896 362.75 536.45 362.75C535.756 362.75 535.16 362.88 534.66 363.14C534.16 363.4 533.77 363.777 533.49 364.27C533.216 364.757 533.08 365.347 533.08 366.04C533.08 367.073 533.38 367.883 533.98 368.47C534.586 369.057 535.41 369.35 536.45 369.35C536.943 369.35 537.41 369.26 537.85 369.08C538.29 368.893 538.656 368.65 538.95 368.35L540 370.02C539.473 370.42 538.886 370.733 538.24 370.96C537.593 371.187 536.93 371.3 536.25 371.3ZM471.64 396.3C470.673 396.3 469.817 396.073 469.07 395.62C468.323 395.16 467.737 394.537 467.31 393.75C466.89 392.957 466.68 392.057 466.68 391.05C466.68 390.323 466.8 389.643 467.04 389.01C467.28 388.37 467.62 387.81 468.06 387.33C468.507 386.85 469.033 386.477 469.64 386.21C470.253 385.937 470.93 385.8 471.67 385.8C472.57 385.8 473.35 385.98 474.01 386.34C474.67 386.7 475.22 387.2 475.66 387.84L475.2 388.33V381.6H477.4V396H475.42V393.62L475.74 394.12C475.38 394.747 474.863 395.267 474.19 395.68C473.523 396.093 472.673 396.3 471.64 396.3ZM472.04 394.35C472.653 394.35 473.197 394.217 473.67 393.95C474.15 393.677 474.527 393.293 474.8 392.8C475.073 392.307 475.21 391.723 475.21 391.05C475.21 390.377 475.073 389.793 474.8 389.3C474.527 388.8 474.15 388.417 473.67 388.15C473.197 387.883 472.653 387.75 472.04 387.75C471.427 387.75 470.883 387.883 470.41 388.15C469.937 388.417 469.563 388.8 469.29 389.3C469.017 389.793 468.88 390.377 468.88 391.05C468.88 391.723 469.017 392.307 469.29 392.8C469.563 393.293 469.937 393.677 470.41 393.95C470.89 394.217 471.433 394.35 472.04 394.35ZM484.98 396.3C483.913 396.3 482.976 396.083 482.17 395.65C481.363 395.21 480.733 394.597 480.28 393.81C479.833 393.023 479.61 392.11 479.61 391.07C479.61 390.31 479.74 389.61 480 388.97C480.26 388.323 480.626 387.763 481.1 387.29C481.573 386.817 482.126 386.45 482.76 386.19C483.4 385.93 484.096 385.8 484.85 385.8C485.67 385.8 486.4 385.947 487.04 386.24C487.68 386.527 488.21 386.93 488.63 387.45C489.056 387.97 489.356 388.58 489.53 389.28C489.71 389.973 489.74 390.727 489.62 391.54H481.72C481.706 392.133 481.836 392.653 482.11 393.1C482.383 393.54 482.773 393.883 483.28 394.13C483.793 394.377 484.396 394.5 485.09 394.5C485.65 394.5 486.19 394.417 486.71 394.25C487.236 394.077 487.713 393.823 488.14 393.49L488.99 395.07C488.67 395.33 488.283 395.553 487.83 395.74C487.376 395.92 486.903 396.057 486.41 396.15C485.916 396.25 485.44 396.3 484.98 396.3ZM481.85 389.92H487.46C487.44 389.173 487.2 388.587 486.74 388.16C486.286 387.733 485.64 387.52 484.8 387.52C483.986 387.52 483.31 387.733 482.77 388.16C482.236 388.587 481.93 389.173 481.85 389.92ZM495.245 396.29C494.425 396.29 493.658 396.173 492.945 395.94C492.232 395.707 491.632 395.393 491.145 395L491.975 393.39C492.435 393.75 492.952 394.033 493.525 394.24C494.105 394.447 494.675 394.55 495.235 394.55C495.882 394.55 496.385 394.437 496.745 394.21C497.105 393.983 497.285 393.667 497.285 393.26C497.285 392.873 497.128 392.59 496.815 392.41C496.508 392.223 495.922 392.03 495.055 391.83C493.808 391.57 492.902 391.203 492.335 390.73C491.775 390.25 491.495 389.587 491.495 388.74C491.495 388.147 491.658 387.623 491.985 387.17C492.318 386.71 492.775 386.35 493.355 386.09C493.935 385.83 494.605 385.7 495.365 385.7C496.105 385.7 496.802 385.807 497.455 386.02C498.108 386.227 498.675 386.52 499.155 386.9L498.375 388.52C498.128 388.3 497.842 388.11 497.515 387.95C497.188 387.79 496.842 387.667 496.475 387.58C496.115 387.487 495.755 387.44 495.395 387.44C494.835 387.44 494.378 387.55 494.025 387.77C493.678 387.983 493.505 388.28 493.505 388.66C493.505 389.053 493.672 389.343 494.005 389.53C494.338 389.717 494.912 389.903 495.725 390.09C497.005 390.37 497.922 390.743 498.475 391.21C499.028 391.677 499.305 392.323 499.305 393.15C499.305 393.783 499.135 394.337 498.795 394.81C498.455 395.277 497.978 395.64 497.365 395.9C496.758 396.16 496.052 396.29 495.245 396.29ZM501.788 396V386.1H503.988V396H501.788ZM502.888 384.33C502.494 384.33 502.154 384.203 501.868 383.95C501.581 383.697 501.438 383.363 501.438 382.95C501.438 382.543 501.581 382.213 501.868 381.96C502.154 381.7 502.494 381.57 502.888 381.57C503.281 381.57 503.621 381.7 503.908 381.96C504.194 382.213 504.338 382.543 504.338 382.95C504.338 383.363 504.194 383.697 503.908 383.95C503.621 384.203 503.281 384.33 502.888 384.33ZM511.362 400.5C510.702 400.5 510.048 400.437 509.402 400.31C508.762 400.183 508.152 399.97 507.572 399.67L508.122 397.85C508.628 398.097 509.145 398.277 509.672 398.39C510.205 398.503 510.732 398.56 511.252 398.56C512.398 398.56 513.272 398.287 513.872 397.74C514.472 397.2 514.772 396.477 514.772 395.57V393.41L515.072 393.88C514.745 394.533 514.255 395.063 513.602 395.47C512.955 395.87 512.145 396.07 511.172 396.07C510.172 396.07 509.295 395.847 508.542 395.4C507.795 394.947 507.212 394.333 506.792 393.56C506.378 392.78 506.172 391.907 506.172 390.94C506.172 390.213 506.292 389.54 506.532 388.92C506.772 388.293 507.112 387.747 507.552 387.28C507.992 386.813 508.518 386.45 509.132 386.19C509.745 385.93 510.425 385.8 511.172 385.8C512.145 385.8 512.955 386.003 513.602 386.41C514.255 386.81 514.745 387.337 515.072 387.99L514.772 388.46V386.09H516.822V395.08C516.822 396.793 516.362 398.123 515.442 399.07C514.522 400.023 513.162 400.5 511.362 400.5ZM511.502 394.16C512.108 394.16 512.648 394.027 513.122 393.76C513.595 393.493 513.965 393.12 514.232 392.64C514.498 392.16 514.632 391.593 514.632 390.94C514.632 390.287 514.498 389.717 514.232 389.23C513.965 388.743 513.595 388.37 513.122 388.11C512.648 387.843 512.108 387.71 511.502 387.71C510.888 387.71 510.345 387.843 509.872 388.11C509.405 388.37 509.038 388.743 508.772 389.23C508.505 389.717 508.372 390.287 508.372 390.94C508.372 391.593 508.505 392.16 508.772 392.64C509.038 393.12 509.405 393.493 509.872 393.76C510.345 394.027 510.888 394.16 511.502 394.16ZM519.874 396V386.1H522.074V387.36C522.487 386.807 522.967 386.41 523.514 386.17C524.06 385.923 524.627 385.8 525.214 385.8C526.12 385.8 526.87 385.98 527.464 386.34C528.057 386.7 528.497 387.163 528.784 387.73C529.077 388.297 529.224 388.88 529.224 389.48V396H527.024V390.16C527.024 389.453 526.81 388.887 526.384 388.46C525.964 388.033 525.377 387.82 524.624 387.82C524.13 387.82 523.69 387.93 523.304 388.15C522.924 388.37 522.624 388.677 522.404 389.07C522.184 389.457 522.074 389.91 522.074 390.43V396H519.874Z" fill="#C4B9AB"/>
<path d="M35.6185 113.845C34.6518 113.845 33.7952 113.619 33.0485 113.165C32.3018 112.705 31.7152 112.082 31.2885 111.295C30.8685 110.502 30.6585 109.602 30.6585 108.595C30.6585 107.869 30.7785 107.189 31.0185 106.555C31.2585 105.915 31.5985 105.355 32.0385 104.875C32.4852 104.395 33.0118 104.022 33.6185 103.755C34.2318 103.482 34.9085 103.345 35.6485 103.345C36.5485 103.345 37.3285 103.525 37.9885 103.885C38.6485 104.245 39.1985 104.745 39.6385 105.385L39.1785 105.875V99.1454H41.3785V113.545H39.3985V111.165L39.7185 111.665C39.3585 112.292 38.8418 112.812 38.1685 113.225C37.5018 113.639 36.6518 113.845 35.6185 113.845ZM36.0185 111.895C36.6318 111.895 37.1752 111.762 37.6485 111.495C38.1285 111.222 38.5052 110.839 38.7785 110.345C39.0518 109.852 39.1885 109.269 39.1885 108.595C39.1885 107.922 39.0518 107.339 38.7785 106.845C38.5052 106.345 38.1285 105.962 37.6485 105.695C37.1752 105.429 36.6318 105.295 36.0185 105.295C35.4052 105.295 34.8618 105.429 34.3885 105.695C33.9152 105.962 33.5418 106.345 33.2685 106.845C32.9952 107.339 32.8585 107.922 32.8585 108.595C32.8585 109.269 32.9952 109.852 33.2685 110.345C33.5418 110.839 33.9152 111.222 34.3885 111.495C34.8685 111.762 35.4118 111.895 36.0185 111.895ZM48.9582 113.845C47.8915 113.845 46.9549 113.629 46.1482 113.195C45.3415 112.755 44.7115 112.142 44.2582 111.355C43.8115 110.569 43.5882 109.655 43.5882 108.615C43.5882 107.855 43.7182 107.155 43.9782 106.515C44.2382 105.869 44.6049 105.309 45.0782 104.835C45.5515 104.362 46.1049 103.995 46.7382 103.735C47.3782 103.475 48.0749 103.345 48.8282 103.345C49.6482 103.345 50.3782 103.492 51.0182 103.785C51.6582 104.072 52.1882 104.475 52.6082 104.995C53.0349 105.515 53.3349 106.125 53.5082 106.825C53.6882 107.519 53.7182 108.272 53.5982 109.085H45.6982C45.6849 109.679 45.8149 110.199 46.0882 110.645C46.3615 111.085 46.7515 111.429 47.2582 111.675C47.7715 111.922 48.3749 112.045 49.0682 112.045C49.6282 112.045 50.1682 111.962 50.6882 111.795C51.2149 111.622 51.6915 111.369 52.1182 111.035L52.9682 112.615C52.6482 112.875 52.2615 113.099 51.8082 113.285C51.3549 113.465 50.8815 113.602 50.3882 113.695C49.8949 113.795 49.4182 113.845 48.9582 113.845ZM45.8282 107.465H51.4382C51.4182 106.719 51.1782 106.132 50.7182 105.705C50.2649 105.279 49.6182 105.065 48.7782 105.065C47.9649 105.065 47.2882 105.279 46.7482 105.705C46.2149 106.132 45.9082 106.719 45.8282 107.465ZM59.2235 113.835C58.4035 113.835 57.6368 113.719 56.9235 113.485C56.2102 113.252 55.6102 112.939 55.1235 112.545L55.9535 110.935C56.4135 111.295 56.9302 111.579 57.5035 111.785C58.0835 111.992 58.6535 112.095 59.2135 112.095C59.8602 112.095 60.3635 111.982 60.7235 111.755C61.0835 111.529 61.2635 111.212 61.2635 110.805C61.2635 110.419 61.1068 110.135 60.7935 109.955C60.4868 109.769 59.9002 109.575 59.0335 109.375C57.7868 109.115 56.8802 108.749 56.3135 108.275C55.7535 107.795 55.4735 107.132 55.4735 106.285C55.4735 105.692 55.6368 105.169 55.9635 104.715C56.2968 104.255 56.7535 103.895 57.3335 103.635C57.9135 103.375 58.5835 103.245 59.3435 103.245C60.0835 103.245 60.7802 103.352 61.4335 103.565C62.0868 103.772 62.6535 104.065 63.1335 104.445L62.3535 106.065C62.1068 105.845 61.8202 105.655 61.4935 105.495C61.1668 105.335 60.8202 105.212 60.4535 105.125C60.0935 105.032 59.7335 104.985 59.3735 104.985C58.8135 104.985 58.3568 105.095 58.0035 105.315C57.6568 105.529 57.4835 105.825 57.4835 106.205C57.4835 106.599 57.6502 106.889 57.9835 107.075C58.3168 107.262 58.8902 107.449 59.7035 107.635C60.9835 107.915 61.9002 108.289 62.4535 108.755C63.0068 109.222 63.2835 109.869 63.2835 110.695C63.2835 111.329 63.1135 111.882 62.7735 112.355C62.4335 112.822 61.9568 113.185 61.3435 113.445C60.7368 113.705 60.0302 113.835 59.2235 113.835ZM65.7663 113.545V103.645H67.9663V113.545H65.7663ZM66.8663 101.875C66.473 101.875 66.133 101.749 65.8463 101.495C65.5597 101.242 65.4163 100.909 65.4163 100.495C65.4163 100.089 65.5597 99.7587 65.8463 99.5054C66.133 99.2454 66.473 99.1154 66.8663 99.1154C67.2597 99.1154 67.5997 99.2454 67.8863 99.5054C68.173 99.7587 68.3163 100.089 68.3163 100.495C68.3163 100.909 68.173 101.242 67.8863 101.495C67.5997 101.749 67.2597 101.875 66.8663 101.875ZM75.3402 118.045C74.6802 118.045 74.0269 117.982 73.3802 117.855C72.7402 117.729 72.1302 117.515 71.5502 117.215L72.1002 115.395C72.6069 115.642 73.1236 115.822 73.6502 115.935C74.1836 116.049 74.7102 116.105 75.2302 116.105C76.3769 116.105 77.2502 115.832 77.8502 115.285C78.4502 114.745 78.7502 114.022 78.7502 113.115V110.955L79.0502 111.425C78.7236 112.079 78.2336 112.609 77.5802 113.015C76.9336 113.415 76.1236 113.615 75.1502 113.615C74.1502 113.615 73.2736 113.392 72.5202 112.945C71.7736 112.492 71.1902 111.879 70.7702 111.105C70.3569 110.325 70.1502 109.452 70.1502 108.485C70.1502 107.759 70.2702 107.085 70.5102 106.465C70.7502 105.839 71.0902 105.292 71.5302 104.825C71.9702 104.359 72.4969 103.995 73.1102 103.735C73.7236 103.475 74.4036 103.345 75.1502 103.345C76.1236 103.345 76.9336 103.549 77.5802 103.955C78.2336 104.355 78.7236 104.882 79.0502 105.535L78.7502 106.005V103.635H80.8002V112.625C80.8002 114.339 80.3402 115.669 79.4202 116.615C78.5002 117.569 77.1402 118.045 75.3402 118.045ZM75.4802 111.705C76.0869 111.705 76.6269 111.572 77.1002 111.305C77.5736 111.039 77.9436 110.665 78.2102 110.185C78.4769 109.705 78.6102 109.139 78.6102 108.485C78.6102 107.832 78.4769 107.262 78.2102 106.775C77.9436 106.289 77.5736 105.915 77.1002 105.655C76.6269 105.389 76.0869 105.255 75.4802 105.255C74.8669 105.255 74.3236 105.389 73.8502 105.655C73.3836 105.915 73.0169 106.289 72.7502 106.775C72.4836 107.262 72.3502 107.832 72.3502 108.485C72.3502 109.139 72.4836 109.705 72.7502 110.185C73.0169 110.665 73.3836 111.039 73.8502 111.305C74.3236 111.572 74.8669 111.705 75.4802 111.705ZM83.8523 113.545V103.645H86.0523V104.905C86.4656 104.352 86.9456 103.955 87.4923 103.715C88.0389 103.469 88.6056 103.345 89.1923 103.345C90.0989 103.345 90.8489 103.525 91.4423 103.885C92.0356 104.245 92.4756 104.709 92.7623 105.275C93.0556 105.842 93.2023 106.425 93.2023 107.025V113.545H91.0023V107.705C91.0023 106.999 90.7889 106.432 90.3623 106.005C89.9423 105.579 89.3556 105.365 88.6023 105.365C88.1089 105.365 87.6689 105.475 87.2823 105.695C86.9023 105.915 86.6023 106.222 86.3823 106.615C86.1623 107.002 86.0523 107.455 86.0523 107.975V113.545H83.8523ZM34.8485 138.835C34.0285 138.835 33.2618 138.719 32.5485 138.485C31.8352 138.252 31.2352 137.939 30.7485 137.545L31.5785 135.935C32.0385 136.295 32.5552 136.579 33.1285 136.785C33.7085 136.992 34.2785 137.095 34.8385 137.095C35.4852 137.095 35.9885 136.982 36.3485 136.755C36.7085 136.529 36.8885 136.212 36.8885 135.805C36.8885 135.419 36.7318 135.135 36.4185 134.955C36.1118 134.769 35.5252 134.575 34.6585 134.375C33.4118 134.115 32.5052 133.749 31.9385 133.275C31.3785 132.795 31.0985 132.132 31.0985 131.285C31.0985 130.692 31.2618 130.169 31.5885 129.715C31.9218 129.255 32.3785 128.895 32.9585 128.635C33.5385 128.375 34.2085 128.245 34.9685 128.245C35.7085 128.245 36.4052 128.352 37.0585 128.565C37.7118 128.772 38.2785 129.065 38.7585 129.445L37.9785 131.065C37.7318 130.845 37.4452 130.655 37.1185 130.495C36.7918 130.335 36.4452 130.212 36.0785 130.125C35.7185 130.032 35.3585 129.985 34.9985 129.985C34.4385 129.985 33.9818 130.095 33.6285 130.315C33.2818 130.529 33.1085 130.825 33.1085 131.205C33.1085 131.599 33.2752 131.889 33.6085 132.075C33.9418 132.262 34.5152 132.449 35.3285 132.635C36.6085 132.915 37.5252 133.289 38.0785 133.755C38.6318 134.222 38.9085 134.869 38.9085 135.695C38.9085 136.329 38.7385 136.882 38.3985 137.355C38.0585 137.822 37.5818 138.185 36.9685 138.445C36.3618 138.705 35.6552 138.835 34.8485 138.835ZM42.2413 143.025C41.8813 143.025 41.528 142.985 41.1813 142.905C40.8347 142.825 40.4947 142.689 40.1613 142.495L40.6613 140.615C40.868 140.749 41.0947 140.849 41.3413 140.915C41.588 140.982 41.808 141.015 42.0013 141.015C42.468 141.015 42.8347 140.905 43.1013 140.685C43.368 140.465 43.578 140.125 43.7313 139.665L44.0613 138.705L40.1613 128.645H42.5713L45.3113 136.325L47.9813 128.645H50.3113L46.0313 139.975C45.7247 140.769 45.3813 141.385 45.0013 141.825C44.6213 142.272 44.2013 142.582 43.7413 142.755C43.2813 142.935 42.7813 143.025 42.2413 143.025ZM55.3759 138.835C54.5559 138.835 53.7892 138.719 53.0759 138.485C52.3625 138.252 51.7625 137.939 51.2759 137.545L52.1059 135.935C52.5659 136.295 53.0825 136.579 53.6559 136.785C54.2359 136.992 54.8059 137.095 55.3659 137.095C56.0125 137.095 56.5159 136.982 56.8759 136.755C57.2359 136.529 57.4159 136.212 57.4159 135.805C57.4159 135.419 57.2592 135.135 56.9459 134.955C56.6392 134.769 56.0525 134.575 55.1859 134.375C53.9392 134.115 53.0325 133.749 52.4659 133.275C51.9059 132.795 51.6259 132.132 51.6259 131.285C51.6259 130.692 51.7892 130.169 52.1159 129.715C52.4492 129.255 52.9059 128.895 53.4859 128.635C54.0659 128.375 54.7359 128.245 55.4959 128.245C56.2359 128.245 56.9325 128.352 57.5859 128.565C58.2392 128.772 58.8059 129.065 59.2859 129.445L58.5059 131.065C58.2592 130.845 57.9725 130.655 57.6459 130.495C57.3192 130.335 56.9725 130.212 56.6059 130.125C56.2459 130.032 55.8859 129.985 55.5259 129.985C54.9659 129.985 54.5092 130.095 54.1559 130.315C53.8092 130.529 53.6359 130.825 53.6359 131.205C53.6359 131.599 53.8025 131.889 54.1359 132.075C54.4692 132.262 55.0425 132.449 55.8559 132.635C57.1359 132.915 58.0525 133.289 58.6059 133.755C59.1592 134.222 59.4359 134.869 59.4359 135.695C59.4359 136.329 59.2659 136.882 58.9259 137.355C58.5859 137.822 58.1092 138.185 57.4959 138.445C56.8892 138.705 56.1825 138.835 55.3759 138.835ZM66.0787 138.845C65.112 138.845 64.3387 138.565 63.7587 138.005C63.1787 137.445 62.8887 136.589 62.8887 135.435V125.755H65.0887V128.645H67.8387V130.465H65.0887V134.955C65.0887 135.649 65.2187 136.139 65.4787 136.425C65.7453 136.705 66.1187 136.845 66.5987 136.845C66.832 136.845 67.052 136.819 67.2587 136.765C67.4653 136.712 67.652 136.642 67.8187 136.555L68.2087 138.335C67.922 138.482 67.592 138.602 67.2187 138.695C66.852 138.795 66.472 138.845 66.0787 138.845ZM60.7187 130.465V128.645H63.1787V130.465H60.7187ZM74.9738 138.845C73.9072 138.845 72.9705 138.629 72.1638 138.195C71.3572 137.755 70.7272 137.142 70.2738 136.355C69.8272 135.569 69.6038 134.655 69.6038 133.615C69.6038 132.855 69.7338 132.155 69.9938 131.515C70.2538 130.869 70.6205 130.309 71.0938 129.835C71.5672 129.362 72.1205 128.995 72.7538 128.735C73.3938 128.475 74.0905 128.345 74.8438 128.345C75.6638 128.345 76.3938 128.492 77.0338 128.785C77.6738 129.072 78.2038 129.475 78.6238 129.995C79.0505 130.515 79.3505 131.125 79.5238 131.825C79.7038 132.519 79.7338 133.272 79.6138 134.085H71.7138C71.7005 134.679 71.8305 135.199 72.1038 135.645C72.3772 136.085 72.7672 136.429 73.2738 136.675C73.7872 136.922 74.3905 137.045 75.0838 137.045C75.6438 137.045 76.1838 136.962 76.7038 136.795C77.2305 136.622 77.7072 136.369 78.1338 136.035L78.9838 137.615C78.6638 137.875 78.2772 138.099 77.8238 138.285C77.3705 138.465 76.8972 138.602 76.4038 138.695C75.9105 138.795 75.4338 138.845 74.9738 138.845ZM71.8438 132.465H77.4538C77.4338 131.719 77.1938 131.132 76.7338 130.705C76.2805 130.279 75.6338 130.065 74.7938 130.065C73.9805 130.065 73.3038 130.279 72.7638 130.705C72.2305 131.132 71.9238 131.719 71.8438 132.465ZM81.8991 138.545V128.645H84.0991V130.005C84.3658 129.619 84.6725 129.305 85.0191 129.065C85.3658 128.819 85.7325 128.639 86.1191 128.525C86.5058 128.405 86.8991 128.345 87.2991 128.345C88.1058 128.345 88.7758 128.522 89.3091 128.875C89.8491 129.229 90.2291 129.682 90.4491 130.235C90.9425 129.515 91.5158 129.022 92.1691 128.755C92.8225 128.482 93.4791 128.345 94.1391 128.345C95.0525 128.345 95.7825 128.525 96.3291 128.885C96.8758 129.245 97.2691 129.709 97.5091 130.275C97.7558 130.842 97.8791 131.425 97.8791 132.025V138.545H95.6791V132.665C95.6791 131.979 95.4891 131.425 95.1091 131.005C94.7358 130.579 94.1891 130.365 93.4691 130.365C92.9958 130.365 92.5725 130.469 92.1991 130.675C91.8258 130.882 91.5291 131.169 91.3091 131.535C91.0958 131.895 90.9891 132.312 90.9891 132.785V138.545H88.7891V132.665C88.7891 131.979 88.6025 131.425 88.2291 131.005C87.8558 130.579 87.3058 130.365 86.5791 130.365C86.1125 130.365 85.6891 130.469 85.3091 130.675C84.9358 130.882 84.6391 131.169 84.4191 131.535C84.2058 131.895 84.0991 132.312 84.0991 132.785V138.545H81.8991ZM104.184 138.835C103.364 138.835 102.598 138.719 101.884 138.485C101.171 138.252 100.571 137.939 100.084 137.545L100.914 135.935C101.374 136.295 101.891 136.579 102.464 136.785C103.044 136.992 103.614 137.095 104.174 137.095C104.821 137.095 105.324 136.982 105.684 136.755C106.044 136.529 106.224 136.212 106.224 135.805C106.224 135.419 106.068 135.135 105.754 134.955C105.448 134.769 104.861 134.575 103.994 134.375C102.748 134.115 101.841 133.749 101.274 133.275C100.714 132.795 100.434 132.132 100.434 131.285C100.434 130.692 100.598 130.169 100.924 129.715C101.258 129.255 101.714 128.895 102.294 128.635C102.874 128.375 103.544 128.245 104.304 128.245C105.044 128.245 105.741 128.352 106.394 128.565C107.048 128.772 107.614 129.065 108.094 129.445L107.314 131.065C107.068 130.845 106.781 130.655 106.454 130.495C106.128 130.335 105.781 130.212 105.414 130.125C105.054 130.032 104.694 129.985 104.334 129.985C103.774 129.985 103.318 130.095 102.964 130.315C102.618 130.529 102.444 130.825 102.444 131.205C102.444 131.599 102.611 131.889 102.944 132.075C103.278 132.262 103.851 132.449 104.664 132.635C105.944 132.915 106.861 133.289 107.414 133.755C107.968 134.222 108.244 134.869 108.244 135.695C108.244 136.329 108.074 136.882 107.734 137.355C107.394 137.822 106.918 138.185 106.304 138.445C105.698 138.705 104.991 138.835 104.184 138.835Z" fill="#3F4249"/>
<path d="M422.05 435.3C420.983 435.3 420.047 435.083 419.24 434.65C418.433 434.21 417.803 433.597 417.35 432.81C416.903 432.023 416.68 431.11 416.68 430.07C416.68 429.31 416.81 428.61 417.07 427.97C417.33 427.323 417.697 426.763 418.17 426.29C418.643 425.817 419.197 425.45 419.83 425.19C420.47 424.93 421.167 424.8 421.92 424.8C422.74 424.8 423.47 424.947 424.11 425.24C424.75 425.527 425.28 425.93 425.7 426.45C426.127 426.97 426.427 427.58 426.6 428.28C426.78 428.973 426.81 429.727 426.69 430.54H418.79C418.777 431.133 418.907 431.653 419.18 432.1C419.453 432.54 419.843 432.883 420.35 433.13C420.863 433.377 421.467 433.5 422.16 433.5C422.72 433.5 423.26 433.417 423.78 433.25C424.307 433.077 424.783 432.823 425.21 432.49L426.06 434.07C425.74 434.33 425.353 434.553 424.9 434.74C424.447 434.92 423.973 435.057 423.48 435.15C422.987 435.25 422.51 435.3 422.05 435.3ZM418.92 428.92H424.53C424.51 428.173 424.27 427.587 423.81 427.16C423.357 426.733 422.71 426.52 421.87 426.52C421.057 426.52 420.38 426.733 419.84 427.16C419.307 427.587 419 428.173 418.92 428.92ZM433.038 435.3C432.071 435.3 431.298 435.02 430.718 434.46C430.138 433.9 429.848 433.043 429.848 431.89V422.21H432.048V425.1H434.798V426.92H432.048V431.41C432.048 432.103 432.178 432.593 432.438 432.88C432.704 433.16 433.078 433.3 433.558 433.3C433.791 433.3 434.011 433.273 434.218 433.22C434.424 433.167 434.611 433.097 434.778 433.01L435.168 434.79C434.881 434.937 434.551 435.057 434.178 435.15C433.811 435.25 433.431 435.3 433.038 435.3ZM427.678 426.92V425.1H430.138V426.92H427.678ZM441.953 435.3C440.913 435.3 439.986 435.073 439.173 434.62C438.359 434.16 437.719 433.537 437.253 432.75C436.793 431.957 436.563 431.057 436.563 430.05C436.563 429.29 436.699 428.593 436.973 427.96C437.246 427.32 437.633 426.763 438.133 426.29C438.633 425.817 439.219 425.45 439.893 425.19C440.573 424.93 441.309 424.8 442.103 424.8C442.769 424.8 443.386 424.89 443.953 425.07C444.526 425.243 445.053 425.513 445.533 425.88L444.473 427.56C444.166 427.287 443.813 427.083 443.413 426.95C443.019 426.817 442.599 426.75 442.153 426.75C441.459 426.75 440.863 426.88 440.363 427.14C439.863 427.4 439.473 427.777 439.193 428.27C438.919 428.757 438.783 429.347 438.783 430.04C438.783 431.073 439.083 431.883 439.683 432.47C440.289 433.057 441.113 433.35 442.153 433.35C442.646 433.35 443.113 433.26 443.553 433.08C443.993 432.893 444.359 432.65 444.653 432.35L445.703 434.02C445.176 434.42 444.589 434.733 443.943 434.96C443.296 435.187 442.633 435.3 441.953 435.3ZM448.885 435.3C448.459 435.3 448.089 435.163 447.775 434.89C447.469 434.617 447.315 434.26 447.315 433.82C447.315 433.52 447.385 433.26 447.525 433.04C447.665 432.813 447.855 432.64 448.095 432.52C448.335 432.393 448.599 432.33 448.885 432.33C449.319 432.33 449.685 432.467 449.985 432.74C450.292 433.007 450.445 433.367 450.445 433.82C450.445 434.113 450.375 434.373 450.235 434.6C450.095 434.82 449.905 434.99 449.665 435.11C449.432 435.237 449.172 435.3 448.885 435.3Z" fill="#3F4249"/>
<path d="M314.5 268V256.48C314.5 255.493 314.783 254.717 315.35 254.15C315.923 253.583 316.713 253.3 317.72 253.3C318.087 253.3 318.42 253.34 318.72 253.42C319.027 253.493 319.31 253.6 319.57 253.74L319.16 255.48C318.967 255.373 318.78 255.3 318.6 255.26C318.42 255.22 318.243 255.2 318.07 255.2C317.663 255.2 317.33 255.303 317.07 255.51C316.817 255.717 316.69 256.07 316.69 256.57V258.1H319.29V259.92H316.69V268H314.5ZM312.51 259.92V258.1H314.79V259.92H312.51ZM321.284 268V258.1H323.484V259.47C323.857 258.85 324.311 258.417 324.844 258.17C325.377 257.917 325.951 257.79 326.564 257.79C326.764 257.79 326.954 257.8 327.134 257.82C327.314 257.84 327.487 257.87 327.654 257.91L327.364 260.18C327.164 260.12 326.961 260.073 326.754 260.04C326.547 260.007 326.341 259.99 326.134 259.99C325.367 259.99 324.734 260.227 324.234 260.7C323.734 261.167 323.484 261.803 323.484 262.61V268H321.284ZM333.802 268.3C332.768 268.3 331.845 268.063 331.032 267.59C330.225 267.11 329.592 266.473 329.132 265.68C328.672 264.88 328.442 264.003 328.442 263.05C328.442 262.343 328.572 261.677 328.832 261.05C329.098 260.417 329.472 259.857 329.952 259.37C330.438 258.883 331.008 258.5 331.662 258.22C332.315 257.94 333.032 257.8 333.812 257.8C334.845 257.8 335.765 258.04 336.572 258.52C337.385 258.993 338.022 259.63 338.482 260.43C338.942 261.223 339.172 262.097 339.172 263.05C339.172 263.75 339.038 264.417 338.772 265.05C338.512 265.683 338.142 266.243 337.662 266.73C337.182 267.217 336.615 267.6 335.962 267.88C335.308 268.16 334.588 268.3 333.802 268.3ZM333.802 266.35C334.415 266.35 334.958 266.217 335.432 265.95C335.912 265.677 336.288 265.293 336.562 264.8C336.835 264.307 336.972 263.723 336.972 263.05C336.972 262.377 336.835 261.793 336.562 261.3C336.288 260.8 335.912 260.417 335.432 260.15C334.958 259.883 334.415 259.75 333.802 259.75C333.188 259.75 332.642 259.883 332.162 260.15C331.688 260.417 331.315 260.8 331.042 261.3C330.775 261.793 330.642 262.377 330.642 263.05C330.642 263.723 330.778 264.307 331.052 264.8C331.325 265.293 331.698 265.677 332.172 265.95C332.652 266.217 333.195 266.35 333.802 266.35ZM341.382 268V258.1H343.582V259.36C343.995 258.807 344.475 258.41 345.022 258.17C345.568 257.923 346.135 257.8 346.722 257.8C347.628 257.8 348.378 257.98 348.972 258.34C349.565 258.7 350.005 259.163 350.292 259.73C350.585 260.297 350.732 260.88 350.732 261.48V268H348.532V262.16C348.532 261.453 348.318 260.887 347.892 260.46C347.472 260.033 346.885 259.82 346.132 259.82C345.638 259.82 345.198 259.93 344.812 260.15C344.432 260.37 344.132 260.677 343.912 261.07C343.692 261.457 343.582 261.91 343.582 262.43V268H341.382ZM357.651 268.3C356.684 268.3 355.911 268.02 355.331 267.46C354.751 266.9 354.461 266.043 354.461 264.89V255.21H356.661V258.1H359.411V259.92H356.661V264.41C356.661 265.103 356.791 265.593 357.051 265.88C357.318 266.16 357.691 266.3 358.171 266.3C358.404 266.3 358.624 266.273 358.831 266.22C359.038 266.167 359.224 266.097 359.391 266.01L359.781 267.79C359.494 267.937 359.164 268.057 358.791 268.15C358.424 268.25 358.044 268.3 357.651 268.3ZM352.291 259.92V258.1H354.751V259.92H352.291ZM366.546 268.3C365.479 268.3 364.543 268.083 363.736 267.65C362.929 267.21 362.299 266.597 361.846 265.81C361.399 265.023 361.176 264.11 361.176 263.07C361.176 262.31 361.306 261.61 361.566 260.97C361.826 260.323 362.193 259.763 362.666 259.29C363.139 258.817 363.693 258.45 364.326 258.19C364.966 257.93 365.663 257.8 366.416 257.8C367.236 257.8 367.966 257.947 368.606 258.24C369.246 258.527 369.776 258.93 370.196 259.45C370.623 259.97 370.923 260.58 371.096 261.28C371.276 261.973 371.306 262.727 371.186 263.54H363.286C363.273 264.133 363.403 264.653 363.676 265.1C363.949 265.54 364.339 265.883 364.846 266.13C365.359 266.377 365.963 266.5 366.656 266.5C367.216 266.5 367.756 266.417 368.276 266.25C368.803 266.077 369.279 265.823 369.706 265.49L370.556 267.07C370.236 267.33 369.849 267.553 369.396 267.74C368.943 267.92 368.469 268.057 367.976 268.15C367.483 268.25 367.006 268.3 366.546 268.3ZM363.416 261.92H369.026C369.006 261.173 368.766 260.587 368.306 260.16C367.853 259.733 367.206 259.52 366.366 259.52C365.553 259.52 364.876 259.733 364.336 260.16C363.803 260.587 363.496 261.173 363.416 261.92ZM373.471 268V258.1H375.671V259.36C376.085 258.807 376.565 258.41 377.111 258.17C377.658 257.923 378.225 257.8 378.811 257.8C379.718 257.8 380.468 257.98 381.061 258.34C381.655 258.7 382.095 259.163 382.381 259.73C382.675 260.297 382.821 260.88 382.821 261.48V268H380.621V262.16C380.621 261.453 380.408 260.887 379.981 260.46C379.561 260.033 378.975 259.82 378.221 259.82C377.728 259.82 377.288 259.93 376.901 260.15C376.521 260.37 376.221 260.677 376.001 261.07C375.781 261.457 375.671 261.91 375.671 262.43V268H373.471ZM389.886 268.3C388.919 268.3 388.063 268.073 387.316 267.62C386.569 267.16 385.983 266.537 385.556 265.75C385.136 264.957 384.926 264.057 384.926 263.05C384.926 262.323 385.046 261.643 385.286 261.01C385.526 260.37 385.866 259.81 386.306 259.33C386.753 258.85 387.279 258.477 387.886 258.21C388.499 257.937 389.176 257.8 389.916 257.8C390.816 257.8 391.596 257.98 392.256 258.34C392.916 258.7 393.466 259.2 393.906 259.84L393.446 260.33V253.6H395.646V268H393.666V265.62L393.986 266.12C393.626 266.747 393.109 267.267 392.436 267.68C391.769 268.093 390.919 268.3 389.886 268.3ZM390.286 266.35C390.899 266.35 391.443 266.217 391.916 265.95C392.396 265.677 392.773 265.293 393.046 264.8C393.319 264.307 393.456 263.723 393.456 263.05C393.456 262.377 393.319 261.793 393.046 261.3C392.773 260.8 392.396 260.417 391.916 260.15C391.443 259.883 390.899 259.75 390.286 259.75C389.673 259.75 389.129 259.883 388.656 260.15C388.183 260.417 387.809 260.8 387.536 261.3C387.263 261.793 387.126 262.377 387.126 263.05C387.126 263.723 387.263 264.307 387.536 264.8C387.809 265.293 388.183 265.677 388.656 265.95C389.136 266.217 389.679 266.35 390.286 266.35ZM400.116 260.67C399.689 260.67 399.319 260.533 399.006 260.26C398.699 259.987 398.546 259.63 398.546 259.19C398.546 258.89 398.616 258.63 398.756 258.41C398.896 258.183 399.086 258.01 399.326 257.89C399.566 257.763 399.829 257.7 400.116 257.7C400.549 257.7 400.916 257.837 401.216 258.11C401.522 258.377 401.676 258.737 401.676 259.19C401.676 259.483 401.606 259.743 401.466 259.97C401.326 260.19 401.136 260.363 400.896 260.49C400.662 260.61 400.402 260.67 400.116 260.67ZM400.116 268.3C399.689 268.3 399.319 268.163 399.006 267.89C398.699 267.617 398.546 267.26 398.546 266.82C398.546 266.52 398.616 266.26 398.756 266.04C398.896 265.813 399.086 265.64 399.326 265.52C399.566 265.393 399.829 265.33 400.116 265.33C400.549 265.33 400.916 265.467 401.216 265.74C401.522 266.007 401.676 266.367 401.676 266.82C401.676 267.113 401.606 267.373 401.466 267.6C401.326 267.82 401.136 267.99 400.896 268.11C400.662 268.237 400.402 268.3 400.116 268.3ZM313.82 293V279H316.06V284.56H322.84V279H325.08V293H322.84V286.62H316.06V293H313.82ZM331.382 293V281.05H327.442V279H337.562V281.05H333.622V293H331.382ZM339.914 293V279H342.084L347.794 288.29L346.924 288.3L352.424 279H354.554V293H352.364L352.394 281.98L352.824 282.13L348.064 289.98H346.424L341.574 282.13L341.934 281.98L341.964 293H339.914ZM358.195 293V279H360.435V290.94H366.535V293H358.195ZM369.085 296.02L368.315 295C368.815 294.76 369.255 294.47 369.635 294.13C370.021 293.797 370.285 293.467 370.425 293.14C370.118 293.16 369.841 293.113 369.595 293C369.348 292.893 369.151 292.737 369.005 292.53C368.858 292.317 368.785 292.067 368.785 291.78C368.785 291.353 368.925 291.007 369.205 290.74C369.491 290.467 369.851 290.33 370.285 290.33C370.785 290.33 371.185 290.497 371.485 290.83C371.791 291.157 371.945 291.607 371.945 292.18C371.945 292.62 371.838 293.063 371.625 293.51C371.411 293.963 371.091 294.4 370.665 294.82C370.245 295.247 369.718 295.647 369.085 296.02ZM386.118 293.3C384.665 293.3 383.395 293 382.308 292.4C381.221 291.8 380.375 290.953 379.768 289.86C379.168 288.76 378.868 287.477 378.868 286.01C378.868 284.943 379.045 283.967 379.398 283.08C379.758 282.187 380.261 281.413 380.908 280.76C381.561 280.107 382.331 279.6 383.218 279.24C384.105 278.88 385.078 278.7 386.138 278.7C387.205 278.7 388.125 278.833 388.898 279.1C389.678 279.367 390.358 279.747 390.938 280.24L389.778 282.07C389.338 281.663 388.825 281.36 388.238 281.16C387.651 280.96 387.005 280.86 386.298 280.86C385.518 280.86 384.815 280.98 384.188 281.22C383.561 281.46 383.025 281.803 382.578 282.25C382.138 282.69 381.798 283.227 381.558 283.86C381.325 284.487 381.208 285.197 381.208 285.99C381.208 287.07 381.418 287.993 381.838 288.76C382.265 289.527 382.865 290.113 383.638 290.52C384.418 290.92 385.338 291.12 386.398 291.12C387.105 291.12 387.785 291.017 388.438 290.81C389.098 290.597 389.715 290.253 390.288 289.78L391.328 291.67C390.655 292.197 389.885 292.6 389.018 292.88C388.158 293.16 387.191 293.3 386.118 293.3ZM398.243 293.3C397.277 293.3 396.33 293.163 395.403 292.89C394.483 292.61 393.707 292.21 393.073 291.69L394.173 289.98C394.507 290.267 394.893 290.513 395.333 290.72C395.78 290.927 396.253 291.087 396.753 291.2C397.253 291.307 397.753 291.36 398.253 291.36C399.167 291.36 399.903 291.187 400.463 290.84C401.03 290.493 401.313 289.987 401.313 289.32C401.313 288.82 401.12 288.397 400.733 288.05C400.353 287.703 399.647 287.383 398.613 287.09L397.173 286.67C395.853 286.29 394.89 285.787 394.283 285.16C393.683 284.533 393.383 283.753 393.383 282.82C393.383 282.2 393.507 281.64 393.753 281.14C394.007 280.64 394.36 280.207 394.813 279.84C395.273 279.473 395.813 279.193 396.433 279C397.053 278.807 397.733 278.71 398.473 278.71C399.413 278.71 400.287 278.847 401.093 279.12C401.9 279.393 402.567 279.76 403.093 280.22L401.953 281.88C401.667 281.62 401.33 281.397 400.943 281.21C400.563 281.023 400.153 280.88 399.713 280.78C399.273 280.68 398.827 280.63 398.373 280.63C397.813 280.63 397.317 280.713 396.883 280.88C396.457 281.04 396.123 281.273 395.883 281.58C395.643 281.887 395.523 282.26 395.523 282.7C395.523 283.02 395.603 283.3 395.763 283.54C395.923 283.78 396.197 284 396.583 284.2C396.977 284.393 397.517 284.59 398.203 284.79L399.723 285.24C401.017 285.62 401.963 286.117 402.563 286.73C403.163 287.337 403.463 288.127 403.463 289.1C403.463 289.933 403.257 290.667 402.843 291.3C402.437 291.927 401.843 292.417 401.063 292.77C400.283 293.123 399.343 293.3 398.243 293.3ZM410.802 293.3C409.835 293.3 408.889 293.163 407.962 292.89C407.042 292.61 406.265 292.21 405.632 291.69L406.732 289.98C407.065 290.267 407.452 290.513 407.892 290.72C408.339 290.927 408.812 291.087 409.312 291.2C409.812 291.307 410.312 291.36 410.812 291.36C411.725 291.36 412.462 291.187 413.022 290.84C413.589 290.493 413.872 289.987 413.872 289.32C413.872 288.82 413.679 288.397 413.292 288.05C412.912 287.703 412.205 287.383 411.172 287.09L409.732 286.67C408.412 286.29 407.449 285.787 406.842 285.16C406.242 284.533 405.942 283.753 405.942 282.82C405.942 282.2 406.065 281.64 406.312 281.14C406.565 280.64 406.919 280.207 407.372 279.84C407.832 279.473 408.372 279.193 408.992 279C409.612 278.807 410.292 278.71 411.032 278.71C411.972 278.71 412.845 278.847 413.652 279.12C414.459 279.393 415.125 279.76 415.652 280.22L414.512 281.88C414.225 281.62 413.889 281.397 413.502 281.21C413.122 281.023 412.712 280.88 412.272 280.78C411.832 280.68 411.385 280.63 410.932 280.63C410.372 280.63 409.875 280.713 409.442 280.88C409.015 281.04 408.682 281.273 408.442 281.58C408.202 281.887 408.082 282.26 408.082 282.7C408.082 283.02 408.162 283.3 408.322 283.54C408.482 283.78 408.755 284 409.142 284.2C409.535 284.393 410.075 284.59 410.762 284.79L412.282 285.24C413.575 285.62 414.522 286.117 415.122 286.73C415.722 287.337 416.022 288.127 416.022 289.1C416.022 289.933 415.815 290.667 415.402 291.3C414.995 291.927 414.402 292.417 413.622 292.77C412.842 293.123 411.902 293.3 410.802 293.3Z" fill="#3F4249"/>
<path d="M441.53 123V113.1H443.73V114.36C444.143 113.807 444.623 113.41 445.17 113.17C445.717 112.923 446.283 112.8 446.87 112.8C447.777 112.8 448.527 112.98 449.12 113.34C449.713 113.7 450.153 114.163 450.44 114.73C450.733 115.297 450.88 115.88 450.88 116.48V123H448.68V117.16C448.68 116.453 448.467 115.887 448.04 115.46C447.62 115.033 447.033 114.82 446.28 114.82C445.787 114.82 445.347 114.93 444.96 115.15C444.58 115.37 444.28 115.677 444.06 116.07C443.84 116.457 443.73 116.91 443.73 117.43V123H441.53ZM458.025 123.3C457.038 123.3 456.165 123.073 455.405 122.62C454.651 122.16 454.058 121.537 453.625 120.75C453.198 119.957 452.985 119.057 452.985 118.05C452.985 117.297 453.108 116.6 453.355 115.96C453.601 115.32 453.948 114.763 454.395 114.29C454.841 113.817 455.375 113.45 455.995 113.19C456.615 112.93 457.291 112.8 458.025 112.8C458.998 112.8 459.811 113.007 460.465 113.42C461.125 113.833 461.628 114.367 461.975 115.02L461.665 115.49V113.1H463.625V123H461.665V120.61L461.975 121.08C461.628 121.733 461.125 122.267 460.465 122.68C459.811 123.093 458.998 123.3 458.025 123.3ZM458.315 121.35C458.915 121.35 459.451 121.217 459.925 120.95C460.398 120.677 460.768 120.293 461.035 119.8C461.308 119.307 461.445 118.723 461.445 118.05C461.445 117.377 461.308 116.793 461.035 116.3C460.768 115.8 460.398 115.417 459.925 115.15C459.451 114.883 458.915 114.75 458.315 114.75C457.708 114.75 457.168 114.883 456.695 115.15C456.228 115.417 455.858 115.8 455.585 116.3C455.311 116.793 455.175 117.377 455.175 118.05C455.175 118.723 455.311 119.307 455.585 119.8C455.858 120.293 456.228 120.677 456.695 120.95C457.168 121.217 457.708 121.35 458.315 121.35ZM470.026 123.29C469.206 123.29 468.44 123.173 467.726 122.94C467.013 122.707 466.413 122.393 465.926 122L466.756 120.39C467.216 120.75 467.733 121.033 468.306 121.24C468.886 121.447 469.456 121.55 470.016 121.55C470.663 121.55 471.166 121.437 471.526 121.21C471.886 120.983 472.066 120.667 472.066 120.26C472.066 119.873 471.91 119.59 471.596 119.41C471.29 119.223 470.703 119.03 469.836 118.83C468.59 118.57 467.683 118.203 467.116 117.73C466.556 117.25 466.276 116.587 466.276 115.74C466.276 115.147 466.44 114.623 466.766 114.17C467.1 113.71 467.556 113.35 468.136 113.09C468.716 112.83 469.386 112.7 470.146 112.7C470.886 112.7 471.583 112.807 472.236 113.02C472.89 113.227 473.456 113.52 473.936 113.9L473.156 115.52C472.91 115.3 472.623 115.11 472.296 114.95C471.97 114.79 471.623 114.667 471.256 114.58C470.896 114.487 470.536 114.44 470.176 114.44C469.616 114.44 469.16 114.55 468.806 114.77C468.46 114.983 468.286 115.28 468.286 115.66C468.286 116.053 468.453 116.343 468.786 116.53C469.12 116.717 469.693 116.903 470.506 117.09C471.786 117.37 472.703 117.743 473.256 118.21C473.81 118.677 474.086 119.323 474.086 120.15C474.086 120.783 473.916 121.337 473.576 121.81C473.236 122.277 472.76 122.64 472.146 122.9C471.54 123.16 470.833 123.29 470.026 123.29ZM476.569 123V113.1H478.769V114.46C479.036 114.073 479.342 113.76 479.689 113.52C480.036 113.273 480.402 113.093 480.789 112.98C481.176 112.86 481.569 112.8 481.969 112.8C482.776 112.8 483.446 112.977 483.979 113.33C484.519 113.683 484.899 114.137 485.119 114.69C485.612 113.97 486.186 113.477 486.839 113.21C487.492 112.937 488.149 112.8 488.809 112.8C489.722 112.8 490.452 112.98 490.999 113.34C491.546 113.7 491.939 114.163 492.179 114.73C492.426 115.297 492.549 115.88 492.549 116.48V123H490.349V117.12C490.349 116.433 490.159 115.88 489.779 115.46C489.406 115.033 488.859 114.82 488.139 114.82C487.666 114.82 487.242 114.923 486.869 115.13C486.496 115.337 486.199 115.623 485.979 115.99C485.766 116.35 485.659 116.767 485.659 117.24V123H483.459V117.12C483.459 116.433 483.272 115.88 482.899 115.46C482.526 115.033 481.976 114.82 481.249 114.82C480.782 114.82 480.359 114.923 479.979 115.13C479.606 115.337 479.309 115.623 479.089 115.99C478.876 116.35 478.769 116.767 478.769 117.24V123H476.569ZM500.024 123.3C498.991 123.3 498.068 123.063 497.254 122.59C496.448 122.11 495.814 121.473 495.354 120.68C494.894 119.88 494.664 119.003 494.664 118.05C494.664 117.343 494.794 116.677 495.054 116.05C495.321 115.417 495.694 114.857 496.174 114.37C496.661 113.883 497.231 113.5 497.884 113.22C498.538 112.94 499.254 112.8 500.034 112.8C501.068 112.8 501.988 113.04 502.794 113.52C503.608 113.993 504.244 114.63 504.704 115.43C505.164 116.223 505.394 117.097 505.394 118.05C505.394 118.75 505.261 119.417 504.994 120.05C504.734 120.683 504.364 121.243 503.884 121.73C503.404 122.217 502.838 122.6 502.184 122.88C501.531 123.16 500.811 123.3 500.024 123.3ZM500.024 121.35C500.638 121.35 501.181 121.217 501.654 120.95C502.134 120.677 502.511 120.293 502.784 119.8C503.058 119.307 503.194 118.723 503.194 118.05C503.194 117.377 503.058 116.793 502.784 116.3C502.511 115.8 502.134 115.417 501.654 115.15C501.181 114.883 500.638 114.75 500.024 114.75C499.411 114.75 498.864 114.883 498.384 115.15C497.911 115.417 497.538 115.8 497.264 116.3C496.998 116.793 496.864 117.377 496.864 118.05C496.864 118.723 497.001 119.307 497.274 119.8C497.548 120.293 497.921 120.677 498.394 120.95C498.874 121.217 499.418 121.35 500.024 121.35ZM511.667 123.3C510.7 123.3 509.927 123.02 509.347 122.46C508.767 121.9 508.477 121.043 508.477 119.89V110.21H510.677V113.1H513.427V114.92H510.677V119.41C510.677 120.103 510.807 120.593 511.067 120.88C511.333 121.16 511.707 121.3 512.187 121.3C512.42 121.3 512.64 121.273 512.847 121.22C513.053 121.167 513.24 121.097 513.407 121.01L513.797 122.79C513.51 122.937 513.18 123.057 512.807 123.15C512.44 123.25 512.06 123.3 511.667 123.3ZM506.307 114.92V113.1H508.767V114.92H506.307ZM516.1 123V113.1H518.3V114.47C518.674 113.85 519.127 113.417 519.66 113.17C520.194 112.917 520.767 112.79 521.38 112.79C521.58 112.79 521.77 112.8 521.95 112.82C522.13 112.84 522.304 112.87 522.47 112.91L522.18 115.18C521.98 115.12 521.777 115.073 521.57 115.04C521.364 115.007 521.157 114.99 520.95 114.99C520.184 114.99 519.55 115.227 519.05 115.7C518.55 116.167 518.3 116.803 518.3 117.61V123H516.1ZM528.628 123.3C527.561 123.3 526.625 123.083 525.818 122.65C525.011 122.21 524.381 121.597 523.928 120.81C523.481 120.023 523.258 119.11 523.258 118.07C523.258 117.31 523.388 116.61 523.648 115.97C523.908 115.323 524.275 114.763 524.748 114.29C525.221 113.817 525.775 113.45 526.408 113.19C527.048 112.93 527.745 112.8 528.498 112.8C529.318 112.8 530.048 112.947 530.688 113.24C531.328 113.527 531.858 113.93 532.278 114.45C532.705 114.97 533.005 115.58 533.178 116.28C533.358 116.973 533.388 117.727 533.268 118.54H525.368C525.355 119.133 525.485 119.653 525.758 120.1C526.031 120.54 526.421 120.883 526.928 121.13C527.441 121.377 528.045 121.5 528.738 121.5C529.298 121.5 529.838 121.417 530.358 121.25C530.885 121.077 531.361 120.823 531.788 120.49L532.638 122.07C532.318 122.33 531.931 122.553 531.478 122.74C531.025 122.92 530.551 123.057 530.058 123.15C529.565 123.25 529.088 123.3 528.628 123.3ZM525.498 116.92H531.108C531.088 116.173 530.848 115.587 530.388 115.16C529.935 114.733 529.288 114.52 528.448 114.52C527.635 114.52 526.958 114.733 526.418 115.16C525.885 115.587 525.578 116.173 525.498 116.92ZM535.553 123V113.1H537.753V114.36C538.167 113.807 538.647 113.41 539.193 113.17C539.74 112.923 540.307 112.8 540.893 112.8C541.8 112.8 542.55 112.98 543.143 113.34C543.737 113.7 544.177 114.163 544.463 114.73C544.757 115.297 544.903 115.88 544.903 116.48V123H542.703V117.16C542.703 116.453 542.49 115.887 542.063 115.46C541.643 115.033 541.057 114.82 540.303 114.82C539.81 114.82 539.37 114.93 538.983 115.15C538.603 115.37 538.303 115.677 538.083 116.07C537.863 116.457 537.753 116.91 537.753 117.43V123H535.553ZM547.858 123V113.1H550.058V114.36C550.471 113.807 550.951 113.41 551.498 113.17C552.045 112.923 552.611 112.8 553.198 112.8C554.105 112.8 554.855 112.98 555.448 113.34C556.041 113.7 556.481 114.163 556.768 114.73C557.061 115.297 557.208 115.88 557.208 116.48V123H555.008V117.16C555.008 116.453 554.795 115.887 554.368 115.46C553.948 115.033 553.361 114.82 552.608 114.82C552.115 114.82 551.675 114.93 551.288 115.15C550.908 115.37 550.608 115.677 550.388 116.07C550.168 116.457 550.058 116.91 550.058 117.43V123H547.858ZM564.673 123.3C563.639 123.3 562.716 123.063 561.903 122.59C561.096 122.11 560.463 121.473 560.003 120.68C559.543 119.88 559.313 119.003 559.313 118.05C559.313 117.343 559.443 116.677 559.703 116.05C559.969 115.417 560.343 114.857 560.823 114.37C561.309 113.883 561.879 113.5 562.533 113.22C563.186 112.94 563.903 112.8 564.683 112.8C565.716 112.8 566.636 113.04 567.443 113.52C568.256 113.993 568.893 114.63 569.353 115.43C569.813 116.223 570.043 117.097 570.043 118.05C570.043 118.75 569.909 119.417 569.643 120.05C569.383 120.683 569.013 121.243 568.533 121.73C568.053 122.217 567.486 122.6 566.833 122.88C566.179 123.16 565.459 123.3 564.673 123.3ZM564.673 121.35C565.286 121.35 565.829 121.217 566.303 120.95C566.783 120.677 567.159 120.293 567.433 119.8C567.706 119.307 567.843 118.723 567.843 118.05C567.843 117.377 567.706 116.793 567.433 116.3C567.159 115.8 566.783 115.417 566.303 115.15C565.829 114.883 565.286 114.75 564.673 114.75C564.059 114.75 563.513 114.883 563.033 115.15C562.559 115.417 562.186 115.8 561.913 116.3C561.646 116.793 561.513 117.377 561.513 118.05C561.513 118.723 561.649 119.307 561.923 119.8C562.196 120.293 562.569 120.677 563.043 120.95C563.523 121.217 564.066 121.35 564.673 121.35ZM575.593 123.29C574.773 123.29 574.006 123.173 573.293 122.94C572.579 122.707 571.979 122.393 571.493 122L572.323 120.39C572.783 120.75 573.299 121.033 573.873 121.24C574.453 121.447 575.023 121.55 575.583 121.55C576.229 121.55 576.733 121.437 577.093 121.21C577.453 120.983 577.633 120.667 577.633 120.26C577.633 119.873 577.476 119.59 577.163 119.41C576.856 119.223 576.269 119.03 575.403 118.83C574.156 118.57 573.249 118.203 572.683 117.73C572.123 117.25 571.843 116.587 571.843 115.74C571.843 115.147 572.006 114.623 572.333 114.17C572.666 113.71 573.123 113.35 573.703 113.09C574.283 112.83 574.953 112.7 575.713 112.7C576.453 112.7 577.149 112.807 577.803 113.02C578.456 113.227 579.023 113.52 579.503 113.9L578.723 115.52C578.476 115.3 578.189 115.11 577.863 114.95C577.536 114.79 577.189 114.667 576.823 114.58C576.463 114.487 576.103 114.44 575.743 114.44C575.183 114.44 574.726 114.55 574.373 114.77C574.026 114.983 573.853 115.28 573.853 115.66C573.853 116.053 574.019 116.343 574.353 116.53C574.686 116.717 575.259 116.903 576.073 117.09C577.353 117.37 578.269 117.743 578.823 118.21C579.376 118.677 579.653 119.323 579.653 120.15C579.653 120.783 579.483 121.337 579.143 121.81C578.803 122.277 578.326 122.64 577.713 122.9C577.106 123.16 576.399 123.29 575.593 123.29ZM586.295 123.3C585.329 123.3 584.555 123.02 583.975 122.46C583.395 121.9 583.105 121.043 583.105 119.89V110.21H585.305V113.1H588.055V114.92H585.305V119.41C585.305 120.103 585.435 120.593 585.695 120.88C585.962 121.16 586.335 121.3 586.815 121.3C587.049 121.3 587.269 121.273 587.475 121.22C587.682 121.167 587.869 121.097 588.035 121.01L588.425 122.79C588.139 122.937 587.809 123.057 587.435 123.15C587.069 123.25 586.689 123.3 586.295 123.3ZM580.935 114.92V113.1H583.395V114.92H580.935ZM590.639 114.49L589.869 113.47C590.369 113.23 590.809 112.943 591.189 112.61C591.576 112.27 591.839 111.937 591.979 111.61C591.673 111.63 591.396 111.587 591.149 111.48C590.903 111.367 590.706 111.207 590.559 111C590.413 110.787 590.339 110.537 590.339 110.25C590.339 109.823 590.479 109.477 590.759 109.21C591.046 108.937 591.406 108.8 591.839 108.8C592.339 108.8 592.739 108.967 593.039 109.3C593.346 109.627 593.499 110.077 593.499 110.65C593.499 111.09 593.393 111.537 593.179 111.99C592.966 112.437 592.646 112.873 592.219 113.3C591.799 113.72 591.273 114.117 590.639 114.49Z" fill="#3F4249"/>
<circle cx="279.5" cy="123.5" r="123.5" fill="#3F4249"/>
<path d="M243.772 138.963C242.526 138.963 241.482 138.71 240.642 138.203C239.809 137.696 239.179 137.01 238.752 136.143C238.332 135.27 238.122 134.29 238.122 133.203V124.663H240.362V133.183C240.362 134.416 240.669 135.336 241.282 135.943C241.896 136.543 242.726 136.843 243.772 136.843C244.819 136.843 245.649 136.543 246.262 135.943C246.876 135.336 247.182 134.416 247.182 133.183V124.663H249.432V133.203C249.432 134.283 249.219 135.26 248.792 136.133C248.372 137 247.742 137.69 246.902 138.203C246.069 138.71 245.026 138.963 243.772 138.963ZM252.987 138.663V124.663H255.227V138.663H252.987ZM267.608 138.963C266.642 138.963 265.785 138.736 265.038 138.283C264.292 137.823 263.705 137.2 263.278 136.413C262.858 135.62 262.648 134.72 262.648 133.713C262.648 132.986 262.768 132.306 263.008 131.673C263.248 131.033 263.588 130.473 264.028 129.993C264.475 129.513 265.002 129.14 265.608 128.873C266.222 128.6 266.898 128.463 267.638 128.463C268.538 128.463 269.318 128.643 269.978 129.003C270.638 129.363 271.188 129.863 271.628 130.503L271.168 130.993V124.263H273.368V138.663H271.388V136.283L271.708 136.783C271.348 137.41 270.832 137.93 270.158 138.343C269.492 138.756 268.642 138.963 267.608 138.963ZM268.008 137.013C268.622 137.013 269.165 136.88 269.638 136.613C270.118 136.34 270.495 135.956 270.768 135.463C271.042 134.97 271.178 134.386 271.178 133.713C271.178 133.04 271.042 132.456 270.768 131.963C270.495 131.463 270.118 131.08 269.638 130.813C269.165 130.546 268.622 130.413 268.008 130.413C267.395 130.413 266.852 130.546 266.378 130.813C265.905 131.08 265.532 131.463 265.258 131.963C264.985 132.456 264.848 133.04 264.848 133.713C264.848 134.386 264.985 134.97 265.258 135.463C265.532 135.956 265.905 136.34 266.378 136.613C266.858 136.88 267.402 137.013 268.008 137.013ZM280.948 138.963C279.881 138.963 278.945 138.746 278.138 138.313C277.331 137.873 276.701 137.26 276.248 136.473C275.801 135.686 275.578 134.773 275.578 133.733C275.578 132.973 275.708 132.273 275.968 131.633C276.228 130.986 276.595 130.426 277.068 129.953C277.541 129.48 278.095 129.113 278.728 128.853C279.368 128.593 280.065 128.463 280.818 128.463C281.638 128.463 282.368 128.61 283.008 128.903C283.648 129.19 284.178 129.593 284.598 130.113C285.025 130.633 285.325 131.243 285.498 131.943C285.678 132.636 285.708 133.39 285.588 134.203H277.688C277.675 134.796 277.805 135.316 278.078 135.763C278.351 136.203 278.741 136.546 279.248 136.793C279.761 137.04 280.365 137.163 281.058 137.163C281.618 137.163 282.158 137.08 282.678 136.913C283.205 136.74 283.681 136.486 284.108 136.153L284.958 137.733C284.638 137.993 284.251 138.216 283.798 138.403C283.345 138.583 282.871 138.72 282.378 138.813C281.885 138.913 281.408 138.963 280.948 138.963ZM277.818 132.583H283.428C283.408 131.836 283.168 131.25 282.708 130.823C282.255 130.396 281.608 130.183 280.768 130.183C279.955 130.183 279.278 130.396 278.738 130.823C278.205 131.25 277.898 131.836 277.818 132.583ZM291.213 138.953C290.393 138.953 289.627 138.836 288.913 138.603C288.2 138.37 287.6 138.056 287.113 137.663L287.943 136.053C288.403 136.413 288.92 136.696 289.493 136.903C290.073 137.11 290.643 137.213 291.203 137.213C291.85 137.213 292.353 137.1 292.713 136.873C293.073 136.646 293.253 136.33 293.253 135.923C293.253 135.536 293.097 135.253 292.783 135.073C292.477 134.886 291.89 134.693 291.023 134.493C289.777 134.233 288.87 133.866 288.303 133.393C287.743 132.913 287.463 132.25 287.463 131.403C287.463 130.81 287.627 130.286 287.953 129.833C288.287 129.373 288.743 129.013 289.323 128.753C289.903 128.493 290.573 128.363 291.333 128.363C292.073 128.363 292.77 128.47 293.423 128.683C294.077 128.89 294.643 129.183 295.123 129.563L294.343 131.183C294.097 130.963 293.81 130.773 293.483 130.613C293.157 130.453 292.81 130.33 292.443 130.243C292.083 130.15 291.723 130.103 291.363 130.103C290.803 130.103 290.347 130.213 289.993 130.433C289.647 130.646 289.473 130.943 289.473 131.323C289.473 131.716 289.64 132.006 289.973 132.193C290.307 132.38 290.88 132.566 291.693 132.753C292.973 133.033 293.89 133.406 294.443 133.873C294.997 134.34 295.273 134.986 295.273 135.813C295.273 136.446 295.103 137 294.763 137.473C294.423 137.94 293.947 138.303 293.333 138.563C292.727 138.823 292.02 138.953 291.213 138.953ZM297.756 138.663V128.763H299.956V138.663H297.756ZM298.856 126.993C298.463 126.993 298.123 126.866 297.836 126.613C297.549 126.36 297.406 126.026 297.406 125.613C297.406 125.206 297.549 124.876 297.836 124.623C298.123 124.363 298.463 124.233 298.856 124.233C299.249 124.233 299.589 124.363 299.876 124.623C300.163 124.876 300.306 125.206 300.306 125.613C300.306 126.026 300.163 126.36 299.876 126.613C299.589 126.866 299.249 126.993 298.856 126.993ZM307.33 143.163C306.67 143.163 306.017 143.1 305.37 142.973C304.73 142.846 304.12 142.633 303.54 142.333L304.09 140.513C304.597 140.76 305.113 140.94 305.64 141.053C306.173 141.166 306.7 141.223 307.22 141.223C308.367 141.223 309.24 140.95 309.84 140.403C310.44 139.863 310.74 139.14 310.74 138.233V136.073L311.04 136.543C310.713 137.196 310.223 137.726 309.57 138.133C308.923 138.533 308.113 138.733 307.14 138.733C306.14 138.733 305.263 138.51 304.51 138.063C303.763 137.61 303.18 136.996 302.76 136.223C302.347 135.443 302.14 134.57 302.14 133.603C302.14 132.876 302.26 132.203 302.5 131.583C302.74 130.956 303.08 130.41 303.52 129.943C303.96 129.476 304.487 129.113 305.1 128.853C305.713 128.593 306.393 128.463 307.14 128.463C308.113 128.463 308.923 128.666 309.57 129.073C310.223 129.473 310.713 130 311.04 130.653L310.74 131.123V128.753H312.79V137.743C312.79 139.456 312.33 140.786 311.41 141.733C310.49 142.686 309.13 143.163 307.33 143.163ZM307.47 136.823C308.077 136.823 308.617 136.69 309.09 136.423C309.563 136.156 309.933 135.783 310.2 135.303C310.467 134.823 310.6 134.256 310.6 133.603C310.6 132.95 310.467 132.38 310.2 131.893C309.933 131.406 309.563 131.033 309.09 130.773C308.617 130.506 308.077 130.373 307.47 130.373C306.857 130.373 306.313 130.506 305.84 130.773C305.373 131.033 305.007 131.406 304.74 131.893C304.473 132.38 304.34 132.95 304.34 133.603C304.34 134.256 304.473 134.823 304.74 135.303C305.007 135.783 305.373 136.156 305.84 136.423C306.313 136.69 306.857 136.823 307.47 136.823ZM315.842 138.663V128.763H318.042V130.023C318.455 129.47 318.935 129.073 319.482 128.833C320.029 128.586 320.595 128.463 321.182 128.463C322.089 128.463 322.839 128.643 323.432 129.003C324.025 129.363 324.465 129.826 324.752 130.393C325.045 130.96 325.192 131.543 325.192 132.143V138.663H322.992V132.823C322.992 132.116 322.779 131.55 322.352 131.123C321.932 130.696 321.345 130.483 320.592 130.483C320.099 130.483 319.659 130.593 319.272 130.813C318.892 131.033 318.592 131.34 318.372 131.733C318.152 132.12 318.042 132.573 318.042 133.093V138.663H315.842Z" fill="#C4B9AB"/>
</svg>
