<svg width="174" height="174" viewBox="0 0 174 174" fill="none" xmlns="http://www.w3.org/2000/svg">
<path fill-rule="evenodd" clip-rule="evenodd" d="M174 29.2673C174 43.777 163.441 55.8203 149.588 58.1336C163.441 60.447 174 72.4906 174 87C174 101.509 163.441 113.553 149.588 115.866C163.441 118.18 174 130.223 174 144.733C174 160.896 160.896 174 144.733 174C130.223 174 118.18 163.441 115.866 149.588C113.553 163.441 101.509 174 87 174C72.4906 174 60.447 163.441 58.1336 149.588C55.8203 163.441 43.777 174 29.2673 174C13.1034 174 0 160.896 0 144.733C0 130.223 10.5588 118.18 24.4117 115.866C10.5588 113.553 0 101.509 0 87C0 72.4906 10.5588 60.447 24.4117 58.1336C10.5588 55.8203 0 43.777 0 29.2673C0 13.1034 13.1034 0 29.2673 0C43.777 0 55.8203 10.5588 58.1336 24.4117C60.447 10.5588 72.4906 0 87 0C101.509 0 113.553 10.5588 115.866 24.4117C118.18 10.5588 130.223 0 144.733 0C160.896 0 174 13.1034 174 29.2673ZM58.1336 34.1228C56.0841 46.3966 46.3966 56.0841 34.1228 58.1336C46.3966 60.1832 56.0841 69.871 58.1336 82.1448C60.1832 69.871 69.871 60.1832 82.1448 58.1336C69.871 56.0841 60.1832 46.3966 58.1336 34.1228ZM91.8552 58.1336C104.129 56.0841 113.817 46.3966 115.866 34.1228C117.916 46.3966 127.604 56.0841 139.878 58.1336C127.604 60.1832 117.916 69.871 115.866 82.1448C113.817 69.871 104.129 60.1832 91.8552 58.1336ZM115.866 139.878C117.916 127.604 127.604 117.916 139.878 115.866C127.604 113.817 117.916 104.129 115.866 91.8552C113.817 104.129 104.129 113.817 91.8552 115.866C104.129 117.916 113.817 127.604 115.866 139.878ZM58.1336 91.8552C60.1832 104.129 69.871 113.817 82.1448 115.866C69.871 117.916 60.1832 127.604 58.1336 139.878C56.0841 127.604 46.3966 117.916 34.1228 115.866C46.3966 113.817 56.0841 104.129 58.1336 91.8552Z" fill="#8e8e92"/>
</svg>
